<svg width="33" height="32" viewBox="0 0 33 32" fill="none" xmlns="http://www.w3.org/2000/svg">
<path d="M32.5 16C32.5 12.2195 31.1812 8.74179 28.9806 6.00073L20.9363 19.9339H32.0101C32.3296 18.6749 32.5 17.357 32.5 16Z" fill="#23286B"/>
<path d="M22.125 14.125L27.6568 4.54356C24.7724 1.73387 20.8352 0 16.5 0C15.6761 0 14.8666 0.0626875 14.0758 0.183437L22.125 14.125Z" fill="#23286B"/>
<path d="M10.875 17.875L5.3432 27.4564C8.22758 30.2661 12.1648 32 16.5 32C17.324 32 18.1334 31.9373 18.9242 31.8166L10.875 17.875Z" fill="#23286B"/>
<path d="M15.3113 21.8089L20.8483 31.3993C25.6842 30.0319 29.5965 26.4425 31.4082 21.8088L15.3113 21.8089Z" fill="#23286B"/>
<path d="M17.6887 10.191L12.1517 0.600586C7.3158 1.96802 3.40349 5.55734 1.59174 10.191H17.6887Z" fill="#23286B"/>
<path d="M10.0631 15.5313L12.0638 12.0662H0.989938C0.670438 13.3252 0.5 14.643 0.5 16C0.5 19.7805 1.81881 23.2583 4.01938 25.9994L10.0631 15.5313Z" fill="#23286B"/>
</svg>
