<svg width="14" height="20" viewBox="0 0 14 20" fill="none" xmlns="http://www.w3.org/2000/svg">
<path d="M3.25 0.5C1.46403 0.5 0 1.96403 0 3.75V18.75C4.05098e-05 18.8881 0.0381795 19.0234 0.110217 19.1412C0.182255 19.2589 0.285396 19.3545 0.408282 19.4175C0.531168 19.4804 0.669032 19.5081 0.80669 19.4977C0.944348 19.4873 1.07646 19.4391 1.18848 19.3584L7 15.1738L12.8115 19.3584C12.9235 19.4391 13.0557 19.4873 13.1933 19.4977C13.331 19.5081 13.4688 19.4804 13.5917 19.4175C13.7146 19.3545 13.8177 19.2589 13.8898 19.1412C13.9618 19.0234 14 18.8881 14 18.75V3.75C14 1.96403 12.536 0.5 10.75 0.5H3.25ZM3.25 2H10.75C11.725 2 12.5 2.77497 12.5 3.75V17.2861L7.43848 13.6416C7.31078 13.5496 7.15739 13.5001 7 13.5001C6.84262 13.5001 6.68922 13.5496 6.56152 13.6416L1.5 17.2861V3.75C1.5 2.77497 2.27497 2 3.25 2Z" fill="#23286B"/>
</svg>
