<svg width="14" height="13" viewBox="0 0 14 13" fill="none" xmlns="http://www.w3.org/2000/svg">
<path d="M1.83325 0.666656C1.00625 0.666656 0.333252 1.33966 0.333252 2.16666V9.83332C0.333252 10.6603 1.00625 11.3333 1.83325 11.3333H5.11646C4.78212 11.063 4.50901 10.7217 4.31567 10.3333H1.83325C1.55759 10.3333 1.33325 10.109 1.33325 9.83332V2.16666C1.33325 1.89099 1.55759 1.66666 1.83325 1.66666H12.1666C12.4423 1.66666 12.6666 1.89099 12.6666 2.16666V9.83332C12.6666 10.109 12.4423 10.3333 12.1666 10.3333H9.68416C9.49083 10.7217 9.21772 11.063 8.88338 11.3333H12.1666C12.9936 11.3333 13.6666 10.6603 13.6666 9.83332V2.16666C13.6666 1.33966 12.9936 0.666656 12.1666 0.666656H1.83325ZM3.16659 2.99999C3.10033 2.99905 3.03455 3.01129 2.97306 3.036C2.91158 3.06071 2.85562 3.09739 2.80843 3.14391C2.76125 3.19043 2.72378 3.24587 2.69821 3.307C2.67263 3.36813 2.65946 3.43373 2.65946 3.49999C2.65946 3.56625 2.67263 3.63185 2.69821 3.69298C2.72378 3.75411 2.76125 3.80955 2.80843 3.85607C2.85562 3.90259 2.91158 3.93927 2.97306 3.96398C3.03455 3.98869 3.10033 4.00093 3.16659 3.99999H10.8333C10.8995 4.00093 10.9653 3.98869 11.0268 3.96398C11.0883 3.93927 11.1442 3.90259 11.1914 3.85607C11.2386 3.80955 11.2761 3.75411 11.3016 3.69298C11.3272 3.63185 11.3404 3.56625 11.3404 3.49999C11.3404 3.43373 11.3272 3.36813 11.3016 3.307C11.2761 3.24587 11.2386 3.19043 11.1914 3.14391C11.1442 3.09739 11.0883 3.06071 11.0268 3.036C10.9653 3.01129 10.8995 2.99905 10.8333 2.99999H3.16659ZM3.83325 4.99999C3.767 4.99905 3.70121 5.01129 3.63973 5.036C3.57825 5.06071 3.52229 5.09739 3.4751 5.14391C3.42792 5.19043 3.39045 5.24587 3.36487 5.307C3.3393 5.36812 3.32613 5.43373 3.32613 5.49999C3.32613 5.56625 3.3393 5.63185 3.36487 5.69298C3.39045 5.75411 3.42792 5.80955 3.4751 5.85607C3.52229 5.90259 3.57825 5.93927 3.63973 5.96398C3.70121 5.98869 3.767 6.00093 3.83325 5.99999H10.1666C10.2328 6.00093 10.2986 5.98869 10.3601 5.96398C10.4216 5.93927 10.4776 5.90259 10.5247 5.85607C10.5719 5.80955 10.6094 5.75411 10.635 5.69298C10.6605 5.63185 10.6737 5.56625 10.6737 5.49999C10.6737 5.43373 10.6605 5.36812 10.635 5.307C10.6094 5.24587 10.5719 5.19043 10.5247 5.14391C10.4776 5.09739 10.4216 5.06071 10.3601 5.036C10.2986 5.01129 10.2328 4.99905 10.1666 4.99999H3.83325ZM6.99992 6.66666C5.71718 6.66666 4.66659 7.71725 4.66659 8.99999C4.66659 9.78776 5.06368 10.4871 5.66659 10.9101V12.1667C5.66659 12.345 5.76128 12.5096 5.91528 12.5989C6.06962 12.6886 6.25997 12.6896 6.41463 12.6009L6.99992 12.2663L7.58521 12.6009C7.66187 12.6449 7.74759 12.6667 7.83325 12.6667C7.91992 12.6667 8.00689 12.6443 8.08455 12.5989C8.23855 12.5096 8.33325 12.345 8.33325 12.1667V10.9101C8.93616 10.4871 9.33325 9.78776 9.33325 8.99999C9.33325 7.71725 8.28266 6.66666 6.99992 6.66666ZM6.99992 7.66666C7.74222 7.66666 8.33325 8.25769 8.33325 8.99999C8.33325 9.74229 7.74222 10.3333 6.99992 10.3333C6.25762 10.3333 5.66659 9.74229 5.66659 8.99999C5.66659 8.25769 6.25762 7.66666 6.99992 7.66666Z" fill="black"/>
</svg>
