<svg width="13" height="13" viewBox="0 0 13 13" fill="none" xmlns="http://www.w3.org/2000/svg">
<path d="M0.492239 0.992798C0.359744 0.994868 0.233489 1.04944 0.141204 1.14454C0.0489186 1.23963 -0.00184916 1.36746 5.15086e-05 1.49996V12.5C6.4767e-05 12.6326 0.0527475 12.7597 0.146513 12.8535C0.240278 12.9473 0.367447 12.9999 0.500051 13H11.5001C11.5663 13.0009 11.6321 12.9887 11.6936 12.9639C11.7551 12.9392 11.811 12.9026 11.8582 12.856C11.9054 12.8095 11.9429 12.7541 11.9684 12.693C11.994 12.6318 12.0072 12.5662 12.0072 12.5C12.0072 12.4337 11.994 12.3681 11.9684 12.307C11.9429 12.2458 11.9054 12.1904 11.8582 12.1439C11.811 12.0974 11.7551 12.0607 11.6936 12.036C11.6321 12.0113 11.5663 11.999 11.5001 12H1.00005V1.49996C1.00101 1.43304 0.988527 1.3666 0.963339 1.3046C0.938151 1.24259 0.900771 1.18627 0.853415 1.13897C0.806059 1.09168 0.74969 1.05437 0.68765 1.02926C0.625609 1.00415 0.55916 0.991752 0.492239 0.992798ZM11.5254 1.9941C11.4358 1.99028 11.3469 2.01063 11.2678 2.05301C11.1888 2.09539 11.1226 2.15824 11.0762 2.23499L8.96229 5.61715L7.89979 4.19983C7.85058 4.13426 7.786 4.0818 7.71175 4.04706C7.63749 4.01232 7.55583 3.99637 7.47396 4.00061C7.39209 4.00486 7.31252 4.02917 7.24225 4.0714C7.17199 4.11363 7.11318 4.17249 7.07102 4.2428L5.45383 6.93811L4.39979 5.53316C4.35135 5.46871 4.28804 5.41692 4.21526 5.38223C4.14248 5.34753 4.06239 5.33094 3.98181 5.33388C3.90124 5.33682 3.82257 5.35921 3.75251 5.39912C3.68246 5.43903 3.62309 5.4953 3.57948 5.56311L2.07948 7.89644C2.04194 7.95166 2.01584 8.01383 2.00271 8.07929C1.98959 8.14475 1.98971 8.21218 2.00306 8.27759C2.01641 8.34301 2.04273 8.40509 2.08046 8.46017C2.11818 8.51525 2.16656 8.56222 2.22273 8.59831C2.27891 8.63439 2.34173 8.65886 2.40752 8.67028C2.4733 8.68169 2.5407 8.67982 2.60574 8.66477C2.67079 8.64971 2.73216 8.62179 2.78624 8.58264C2.84032 8.54349 2.88601 8.4939 2.92062 8.43681L4.03195 6.70829L5.10031 8.13342C5.14952 8.19899 5.2141 8.25145 5.28836 8.28619C5.36261 8.32093 5.44427 8.33688 5.52614 8.33264C5.60801 8.32839 5.68759 8.30408 5.75785 8.26185C5.82812 8.21962 5.88692 8.16076 5.92909 8.09045L7.54628 5.39514L8.60031 6.80009C8.64907 6.86495 8.71288 6.91697 8.78623 6.95166C8.85958 6.98635 8.94028 7.00267 9.02135 6.99921C9.10242 6.99575 9.18142 6.97261 9.25155 6.9318C9.32168 6.89098 9.38083 6.83371 9.42388 6.76493L11.9239 2.76493C11.9716 2.69096 11.999 2.60569 12.0033 2.51774C12.0075 2.4298 11.9884 2.34229 11.948 2.26407C11.9076 2.18585 11.8472 2.11969 11.773 2.07229C11.6988 2.02488 11.6134 1.99791 11.5254 1.9941Z" fill="black"/>
</svg>
