<svg width="33" height="33" viewBox="0 0 33 33" fill="none" xmlns="http://www.w3.org/2000/svg">
<path d="M31.6474 5.56033L27.2838 1.19301C26.1844 0.0926191 24.2717 0.0905054 23.168 1.19512L3.61972 20.9363C3.53306 21.0237 3.47054 21.1311 3.43644 21.249L0.527397 31.4395C0.454988 31.6933 0.525965 31.967 0.712783 32.1539C0.851261 32.2925 1.03665 32.3672 1.22701 32.3672C1.29376 32.3672 1.36126 32.3579 1.42658 32.3394L11.6084 29.4279C11.7263 29.3938 11.8335 29.3312 11.9209 29.2445L31.6474 9.67742C32.1972 9.12726 32.4997 8.39649 32.4997 7.61888C32.4997 6.84126 32.1972 6.11049 31.6474 5.56033Z" fill="#23286B"/>
<path d="M8.69446 23.1395L7.69137 21.1327C7.56776 20.8862 7.31637 20.7307 7.04078 20.7307H5.8761L19.9944 6.48535L22.6715 9.16245L8.69446 23.1395Z" fill="#FFCA28"/>
<path d="M11.7298 25.171L9.7229 24.1679L23.6999 10.1909L26.377 12.868L12.1318 26.9863V25.8216C12.1318 25.546 11.9762 25.2946 11.7298 25.171Z" fill="#FFCA28"/>
<path d="M24.1942 2.24776C24.744 1.69801 25.7013 1.69801 26.251 2.24776L30.6147 6.6114C30.8895 6.88624 31.0408 7.25129 31.0408 7.63979C31.0408 8.02829 30.8895 8.39333 30.6168 8.66606L27.41 11.8442L21.0182 5.45238L24.1942 2.24776Z" fill="#D32F2F"/>
<path d="M8.17441 25.0214C8.10411 24.9862 7.88429 24.7664 7.84911 24.6961L6.59559 22.189H4.68438L3.06567 27.8554L5.09429 29.7823L10.6816 28.1862V26.275L8.17441 25.0214Z" fill="#F2F2F2"/>
<path d="M5.09419 29.7819L3.06565 27.855L3.23324 27.2681L2.28592 30.5842L5.60201 29.6368L5.09419 29.7819Z" fill="#23286B"/>
<path opacity="0.1" d="M10.6815 26.275L8.17438 25.0215C8.10408 24.9863 8.06672 24.9138 8.01176 24.8589L2.28592 30.5847L10.6815 28.1863V26.275Z" fill="#23286B"/>
<path opacity="0.1" d="M28.4372 4.43311L24.2184 8.65186L27.4144 11.8478L30.6212 8.66965C30.8939 8.39693 31.0452 8.03188 31.0452 7.64338C31.0452 7.25488 30.8939 6.88983 30.6191 6.61499L28.4372 4.43311Z" fill="#23286B"/>
<path opacity="0.1" d="M11.7341 25.1744L9.72723 24.1713L23.7042 10.1943L26.3813 12.8714L12.1361 26.9897V25.825C12.1361 25.5494 11.9805 25.2981 11.7341 25.1744Z" fill="#23286B"/>
<path d="M31.6474 5.56033L27.2838 1.19301C26.1844 0.0926191 24.2717 0.0905055 23.168 1.19512L3.61972 20.9363C3.53306 21.0237 3.47054 21.1311 3.43644 21.249L0.527397 31.4395C0.454988 31.6933 0.525965 31.967 0.712783 32.1539C0.851261 32.2925 1.03665 32.3672 1.22701 32.3672C1.29376 32.3672 1.36126 32.3579 1.42658 32.3394L11.6084 29.4279C11.7263 29.3938 11.8335 29.3312 11.9209 29.2445L31.6474 9.67742C32.1972 9.12726 32.4997 8.39649 32.4997 7.61888C32.4997 6.84126 32.1972 6.11049 31.6474 5.56033Z" fill="url(#paint0_linear)"/>
<defs>
<linearGradient id="paint0_linear" x1="7.09132" y1="13.3888" x2="26.0045" y2="22.2045" gradientUnits="userSpaceOnUse">
<stop stop-color="white" stop-opacity="0.2"/>
<stop offset="1" stop-color="white" stop-opacity="0"/>
</linearGradient>
</defs>
</svg>
