<svg width="40" height="41" viewBox="0 0 40 41" fill="none" xmlns="http://www.w3.org/2000/svg">
<rect x="1" y="39.1694" width="38" height="38" rx="19" transform="rotate(-90 1 39.1694)" stroke="#23286B" stroke-width="2"/>
<path d="M25.3334 19.9425H26.5405L25.6869 19.0889L22.2765 15.6785L21.923 16.0321L22.2765 15.6785C22.188 15.59 22.188 15.4464 22.2765 15.3579C22.3651 15.2694 22.5087 15.2694 22.5972 15.3579L27.2482 20.0089C27.3367 20.0974 27.3367 20.2409 27.2482 20.3295L27.6017 20.6831L27.2482 20.3295L22.5975 24.9803C22.5529 25.0248 22.4956 25.0469 22.437 25.0469C22.3783 25.0469 22.3211 25.0248 22.2767 24.9805C22.1881 24.8919 22.1881 24.7484 22.2767 24.6598L22.2767 24.6598L25.6869 21.2494L26.5405 20.3959H25.3334H12.9121C12.787 20.3959 12.6854 20.2943 12.6854 20.1692C12.6854 20.044 12.787 19.9425 12.9121 19.9425H25.3334Z" fill="#23286B" stroke="#23286B"/>
</svg>
