<svg width="12" height="12" viewBox="0 0 12 12" fill="none" xmlns="http://www.w3.org/2000/svg">
<path d="M1.5 0C0.6775 0 0 0.6775 0 1.5V2.5C0 3.3225 0.6775 4 1.5 4H4.16667C4.98917 4 5.66667 3.3225 5.66667 2.5V1.5C5.66667 0.6775 4.98917 0 4.16667 0H1.5ZM7.83333 0C7.01083 0 6.33333 0.6775 6.33333 1.5V5.83333C6.33333 6.65583 7.01083 7.33333 7.83333 7.33333H10.5C11.3225 7.33333 12 6.65583 12 5.83333V1.5C12 0.6775 11.3225 0 10.5 0H7.83333ZM1.5 1H4.16667C4.44883 1 4.66667 1.21783 4.66667 1.5V2.5C4.66667 2.78217 4.44883 3 4.16667 3H1.5C1.21783 3 1 2.78217 1 2.5V1.5C1 1.21783 1.21783 1 1.5 1ZM7.83333 1H10.5C10.7822 1 11 1.21783 11 1.5V5.83333C11 6.1155 10.7822 6.33333 10.5 6.33333H7.83333C7.55117 6.33333 7.33333 6.1155 7.33333 5.83333V1.5C7.33333 1.21783 7.55117 1 7.83333 1ZM1.5 4.66667C0.6775 4.66667 0 5.34417 0 6.16667V10.5C0 11.3225 0.6775 12 1.5 12H4.16667C4.98917 12 5.66667 11.3225 5.66667 10.5V6.16667C5.66667 5.34417 4.98917 4.66667 4.16667 4.66667H1.5ZM1.5 5.66667H4.16667C4.44883 5.66667 4.66667 5.8845 4.66667 6.16667V10.5C4.66667 10.7822 4.44883 11 4.16667 11H1.5C1.21783 11 1 10.7822 1 10.5V6.16667C1 5.8845 1.21783 5.66667 1.5 5.66667ZM7.83333 8C7.01083 8 6.33333 8.6775 6.33333 9.5V10.5C6.33333 11.3225 7.01083 12 7.83333 12H10.5C11.3225 12 12 11.3225 12 10.5V9.5C12 8.6775 11.3225 8 10.5 8H7.83333ZM7.83333 9H10.5C10.7822 9 11 9.21783 11 9.5V10.5C11 10.7822 10.7822 11 10.5 11H7.83333C7.55117 11 7.33333 10.7822 7.33333 10.5V9.5C7.33333 9.21783 7.55117 9 7.83333 9Z" fill="black"/>
</svg>
