<svg width="30" height="30" viewBox="0 0 30 30" fill="none" xmlns="http://www.w3.org/2000/svg">
<path d="M15 0.5625C7.03903 0.5625 0.5625 7.03903 0.5625 15C0.5625 22.961 7.03903 29.4375 15 29.4375C22.961 29.4375 29.4375 22.961 29.4375 15C29.4375 7.03903 22.961 0.5625 15 0.5625ZM28.0915 15.6562C27.936 18.7793 26.6891 21.613 24.7184 23.7905L23.3528 22.4248L22.4248 23.3528L23.7905 24.7184C21.613 26.6898 18.78 27.936 15.6562 28.0915V26.1562H14.3438V28.0915C11.2207 27.936 8.38697 26.6891 6.20953 24.7184L7.57519 23.3528L6.64725 22.4248L5.28159 23.7905C3.31022 21.613 2.064 18.78 1.90847 15.6562H11.785C12.0902 17.1518 13.4152 18.2812 15 18.2812C16.8093 18.2812 18.2812 16.8093 18.2812 15C18.2812 13.4158 17.1518 12.0902 15.6562 11.785V1.90847C18.7793 2.064 21.613 3.31087 23.7905 5.28159L22.4248 6.64725L23.3528 7.57519L24.7184 6.20953C26.6898 8.38697 27.936 11.22 28.0915 14.3438H26.1562V15.6562H28.0915ZM15 13.0312C16.0854 13.0312 16.9688 13.9146 16.9688 15C16.9688 16.0854 16.0854 16.9688 15 16.9688C13.9146 16.9688 13.0312 16.0854 13.0312 15C13.0312 13.9146 13.9146 13.0312 15 13.0312ZM14.3438 1.90847V11.785C13.0601 12.0469 12.0469 13.0601 11.785 14.3438H1.90847C2.2425 7.63097 7.63097 2.2425 14.3438 1.90847Z" fill="url(#paint0_linear)"/>
<defs>
<linearGradient id="paint0_linear" x1="15" y1="-3.36122" x2="15" y2="32.3847" gradientUnits="userSpaceOnUse">
<stop stop-color="#1A6DFF"/>
<stop offset="1" stop-color="#C822FF"/>
</linearGradient>
</defs>
</svg>
