<svg width="140" height="44" viewBox="0 0 140 44" fill="none" xmlns="http://www.w3.org/2000/svg">
<path d="M21.6942 17.3757L20.5405 18.5294V35.9706H22.8479V18.5294L21.6942 17.3757Z" fill="#27067B"/>
<path d="M21.6942 12.0596L22.8479 13.2133V10.6797L21.6942 9.52601L20.5405 10.6797V13.2133L21.6942 12.0596Z" fill="#27067B"/>
<path d="M19.8166 25.6099L16.1292 21.9226L21.6942 16.3577L27.2591 21.9226L23.5717 25.6099V28.8901L30.5392 21.9226L21.6942 13.0776L12.8491 21.9226L19.8166 28.8901V25.6099Z" fill="#00D5BB"/>
<path d="M23.8677 35.1442V31.8867H21.8091V35.1442H23.8677Z" fill="#27067B"/>
<path d="M24.6057 32.6388V31.0553H23.5199V32.6388H24.6057Z" fill="#27067B"/>
<path d="M24.6086 35.9671V34.3836H23.5228V35.9671H24.6086Z" fill="#27067B"/>
<path d="M21.6941 12.1049L15.7446 6.1554L21.6941 0.205933L27.6436 6.1554L21.6941 12.1049ZM19.0248 6.1554L21.6941 8.82475L24.3634 6.1554L21.6941 3.48606L19.0248 6.1554Z" fill="#27067B"/>
<path d="M21.6941 43.5941L0 21.9L15.0433 6.85667L16.6947 8.48542L3.28013 21.9L21.6941 40.314L40.108 21.9L26.6934 8.48542L28.3448 6.85667L43.3882 21.9L21.6941 43.5941Z" fill="#00D5BB"/>
<path d="M46.4872 13.7336H50.7627V20.882L52.8665 18.2806C53.613 17.3531 54.7441 16.8101 55.943 16.8101H58.8838L54.6536 21.6964L58.9969 28.9805H54.2917L51.8485 24.8408L50.7401 26.1302V28.9805H46.4646V13.7336H46.4872Z" fill="#27067B"/>
<path d="M59.1326 22.9406V22.8953C59.1326 19.5021 61.5531 16.8101 64.9916 16.8101C68.9956 16.8101 70.8505 19.7509 70.8505 23.1668C70.8505 23.4156 70.8505 23.7323 70.8279 24.0038H63.0461C63.3628 25.2706 64.2903 25.904 65.5571 25.904C66.5298 25.904 67.299 25.5421 68.136 24.7277L70.3981 26.6053C69.2897 28.0304 67.6609 28.9579 65.3535 28.9579C61.6888 28.9805 59.1326 26.5374 59.1326 22.9406ZM67.0275 21.9226C66.8691 20.6332 66.1226 19.8188 65.0142 19.8188C63.951 19.8188 63.2045 20.6558 63.0009 21.9226H67.0275Z" fill="#27067B"/>
<path d="M72.2532 32.0797V28.9805H74.9225C75.6012 28.9805 76.0536 28.3019 75.8274 27.6685L71.4614 16.8101H75.9179L78.3384 24.1395L79.7635 19.6152C80.2838 17.9638 81.8221 16.8328 83.5413 16.8328H85.0117L80.5553 28.6865C79.4921 31.5142 78.18 32.1023 75.7595 32.1023C74.2665 32.1023 72.2532 32.0797 72.2532 32.0797Z" fill="#27067B"/>
<path d="M87.206 25.0444V20.2034H84.5366L85.7808 16.8101H87.206V13.7562H91.4136V16.8328H94.196V20.226H91.4136V24.23C91.4136 25.067 91.7981 25.4289 92.5673 25.4289C93.1102 25.4289 93.6531 25.2706 94.1508 25.0218V28.3245C93.4043 28.7543 92.4089 29.0032 91.2326 29.0032C88.699 29.0032 87.206 27.8947 87.206 25.0444Z" fill="#27067B"/>
<path d="M96.0963 16.8328H100.372V19.4795C101.073 17.8281 102.182 16.7423 104.217 16.8328V21.3118H103.833C101.616 21.3118 100.349 22.6013 100.349 25.4063V28.9805H96.0737V16.8328H96.0963Z" fill="#27067B"/>
<path d="M105.62 24.5241V16.8328H109.895V23.4156C109.895 24.7503 110.597 25.4516 111.615 25.4516C112.633 25.4516 113.379 24.7277 113.379 23.4156V16.8328H117.655V28.9805H113.379V27.0803C112.587 28.0983 111.479 29.0032 109.737 29.0032C107.158 29.0032 105.62 27.2839 105.62 24.5241Z" fill="#27067B"/>
<path d="M119.238 27.2387L120.776 24.7729C122.111 25.6552 123.581 26.1076 124.78 26.1076C125.482 26.1076 125.821 25.8814 125.821 25.4742V25.429C125.821 24.9765 125.165 24.7729 123.943 24.4336C121.636 23.8228 119.804 23.0537 119.804 20.701V20.6558C119.804 18.1901 121.794 16.8101 124.486 16.8101C126.183 16.8101 127.947 17.3078 129.282 18.1674L127.879 20.7463C126.681 20.0676 125.368 19.6605 124.441 19.6605C123.808 19.6605 123.491 19.8867 123.491 20.226V20.2712C123.491 20.7237 124.17 20.9499 125.391 21.3118C127.699 21.9679 129.531 22.7596 129.531 25.0218V25.067C129.531 27.6232 127.608 28.9579 124.78 28.9579C122.79 28.9805 120.844 28.415 119.238 27.2387Z" fill="#27067B"/>
<path d="M131.997 24.9539V20.2712H130.549V16.8328H131.997V13.7562H136.272V16.8328H139.1V20.2712H136.272V24.1395C136.272 24.9991 136.657 25.3611 137.448 25.3611C138.014 25.3611 138.557 25.2027 139.055 24.9539V28.3019C138.285 28.7317 137.29 29.0032 136.091 29.0032C133.512 28.9805 131.997 27.8495 131.997 24.9539Z" fill="#27067B"/>
<path d="M91.4815 37.6446C91.3005 37.7803 91.1195 37.8934 90.9159 37.9839C90.7123 38.0744 90.5087 38.1423 90.2825 38.1875C90.0563 38.2328 89.8075 38.2554 89.5134 38.2554C89.061 38.2554 88.6538 38.1649 88.2918 38.0065C87.9299 37.8482 87.5905 37.622 87.3191 37.3505C87.0476 37.0791 86.8214 36.7397 86.6857 36.3778C86.5273 35.9932 86.4595 35.6087 86.4595 35.1562C86.4595 34.7264 86.5273 34.3192 86.6857 33.9573C86.844 33.5727 87.0476 33.256 87.3191 32.9619C87.5905 32.6905 87.9299 32.4643 88.2918 32.3059C88.6764 32.1476 89.0836 32.0571 89.536 32.0571C89.8075 32.0571 90.0789 32.0797 90.2825 32.1249C90.5087 32.1702 90.7123 32.238 90.9159 32.3059C91.1195 32.3964 91.2779 32.4869 91.4588 32.6C91.6172 32.7131 91.7755 32.8488 91.9339 32.9845L91.4588 33.4822C91.1874 33.2334 90.9159 33.0524 90.6218 32.8941C90.3278 32.7357 89.9658 32.6678 89.536 32.6678C89.1967 32.6678 88.88 32.7357 88.5859 32.8488C88.2918 32.9846 88.043 33.1429 87.8394 33.3691C87.6358 33.5953 87.4548 33.8442 87.3417 34.1609C87.2286 34.455 87.1607 34.7717 87.1607 35.1336C87.1607 35.4729 87.2286 35.8122 87.3417 36.1063C87.4548 36.4004 87.6358 36.6719 87.8394 36.8981C88.043 37.1243 88.2918 37.3053 88.5859 37.4184C88.88 37.5541 89.1967 37.5993 89.536 37.5993C89.9658 37.5993 90.3278 37.5315 90.6218 37.3731C90.9159 37.2148 91.2326 37.0112 91.5041 36.7397L91.9565 37.1695C91.8208 37.3731 91.6398 37.5315 91.4815 37.6446Z" fill="#00D5BB"/>
<path d="M101.322 38.2554H100.575L99.8514 36.6266H96.526L95.8021 38.2554H95.1008L97.8833 32.0797H98.5393L101.322 38.2554ZM98.2 32.8941L96.7974 36.0158H99.5799L98.2 32.8941Z" fill="#00D5BB"/>
<path d="M109.375 34.9526C109.239 35.2015 109.081 35.405 108.855 35.586C108.629 35.7444 108.38 35.8801 108.086 35.9706C107.792 36.0611 107.475 36.1063 107.158 36.1063H105.665V38.2554H104.964V32.1249H107.249C107.588 32.1249 107.905 32.1702 108.199 32.2607C108.47 32.3511 108.719 32.4869 108.923 32.6452C109.126 32.8036 109.285 33.0072 109.375 33.256C109.488 33.5048 109.533 33.7763 109.533 34.0704C109.556 34.4097 109.488 34.7038 109.375 34.9526ZM108.425 33.1203C108.131 32.8941 107.724 32.7809 107.226 32.7809H105.665V35.4729H107.181C107.43 35.4729 107.656 35.4503 107.859 35.3824C108.063 35.3146 108.244 35.2241 108.402 35.111C108.561 34.9979 108.674 34.8395 108.742 34.6812C108.81 34.5228 108.855 34.3192 108.855 34.1156C108.877 33.6632 108.719 33.3239 108.425 33.1203Z" fill="#00D5BB"/>
<path d="M114.013 32.1249V38.2554H113.334V32.1249H114.013Z" fill="#00D5BB"/>
<path d="M120.573 38.2554H119.894V32.7809H117.836V32.1475H122.631V32.7809H120.573V38.2554Z" fill="#00D5BB"/>
<path d="M131.295 38.2554H130.549L129.825 36.6266H126.5L125.776 38.2554H125.074L127.857 32.0797H128.513L131.295 38.2554ZM128.174 32.8941L126.771 36.0158H129.554L128.174 32.8941Z" fill="#00D5BB"/>
<path d="M134.96 32.1249H135.661V37.5993H139.1V38.2327H134.96V32.1249Z" fill="#00D5BB"/>
</svg>
