<svg width="139" height="28" viewBox="0 0 139 28" fill="none" xmlns="http://www.w3.org/2000/svg">
<path d="M32.04 21C31.9067 21 31.7933 20.9533 31.7 20.86C31.6067 20.7667 31.56 20.6533 31.56 20.52V7.48C31.56 7.33333 31.6067 7.22 31.7 7.14C31.7933 7.04667 31.9067 7 32.04 7H33.9C34.0467 7 34.16 7.04667 34.24 7.14C34.3333 7.22 34.38 7.33333 34.38 7.48V18.62H40.72C40.8667 18.62 40.9867 18.6667 41.08 18.76C41.1733 18.8533 41.22 18.9733 41.22 19.12V20.52C41.22 20.6667 41.1733 20.7867 41.08 20.88C40.9867 20.96 40.8667 21 40.72 21H32.04ZM47.2453 21.2C45.7653 21.2 44.5853 20.7733 43.7053 19.92C42.8386 19.0533 42.3786 17.84 42.3253 16.28L42.3053 15.78L42.3253 15.28C42.392 13.76 42.8586 12.5667 43.7253 11.7C44.6053 10.8333 45.7786 10.4 47.2453 10.4C48.8186 10.4 50.032 10.88 50.8853 11.84C51.752 12.8 52.1853 14.08 52.1853 15.68V16.1C52.1853 16.2333 52.1386 16.3467 52.0453 16.44C51.952 16.5333 51.832 16.58 51.6853 16.58H45.0453V16.74C45.072 17.4733 45.272 18.0933 45.6453 18.6C46.032 19.0933 46.5586 19.34 47.2253 19.34C48.012 19.34 48.6453 19.0333 49.1253 18.42C49.2453 18.2733 49.3386 18.18 49.4053 18.14C49.4853 18.1 49.5986 18.08 49.7453 18.08H51.4653C51.5853 18.08 51.6853 18.12 51.7653 18.2C51.8586 18.2667 51.9053 18.3533 51.9053 18.46C51.9053 18.78 51.712 19.16 51.3253 19.6C50.952 20.0267 50.412 20.4 49.7053 20.72C48.9986 21.04 48.1786 21.2 47.2453 21.2ZM49.4653 14.9V14.84C49.4653 14.0533 49.2653 13.42 48.8653 12.94C48.4786 12.46 47.9386 12.22 47.2453 12.22C46.552 12.22 46.012 12.46 45.6253 12.94C45.2386 13.42 45.0453 14.0533 45.0453 14.84V14.9H49.4653ZM57.3283 21.2C56.6483 21.2 56.0216 21.0667 55.4483 20.8C54.8883 20.52 54.4416 20.1467 54.1083 19.68C53.7883 19.2133 53.6283 18.7 53.6283 18.14C53.6283 17.2333 53.9949 16.5 54.7283 15.94C55.4616 15.38 56.4683 15 57.7483 14.8L60.4883 14.4V13.98C60.4883 13.3933 60.3416 12.9533 60.0483 12.66C59.7549 12.3667 59.2816 12.22 58.6283 12.22C58.1883 12.22 57.8283 12.3067 57.5483 12.48C57.2816 12.64 57.0683 12.8 56.9083 12.96C56.7483 13.1333 56.6416 13.2467 56.5883 13.3C56.5349 13.46 56.4349 13.54 56.2883 13.54H54.7483C54.6283 13.54 54.5216 13.5 54.4283 13.42C54.3483 13.34 54.3083 13.2333 54.3083 13.1C54.3216 12.7667 54.4816 12.3867 54.7883 11.96C55.1083 11.5333 55.5949 11.1667 56.2483 10.86C56.9016 10.5533 57.7016 10.4 58.6483 10.4C60.2216 10.4 61.3683 10.7533 62.0883 11.46C62.8083 12.1667 63.1683 13.0933 63.1683 14.24V20.52C63.1683 20.6533 63.1216 20.7667 63.0283 20.86C62.9483 20.9533 62.8349 21 62.6883 21H61.0683C60.9349 21 60.8216 20.9533 60.7283 20.86C60.6349 20.7667 60.5883 20.6533 60.5883 20.52V19.74C60.2949 20.1667 59.8749 20.52 59.3283 20.8C58.7949 21.0667 58.1283 21.2 57.3283 21.2ZM58.0083 19.3C58.7416 19.3 59.3416 19.06 59.8083 18.58C60.2749 18.1 60.5083 17.4 60.5083 16.48V16.06L58.5083 16.38C57.7349 16.5 57.1483 16.6933 56.7483 16.96C56.3616 17.2267 56.1683 17.5533 56.1683 17.94C56.1683 18.3667 56.3483 18.7 56.7083 18.94C57.0683 19.18 57.5016 19.3 58.0083 19.3ZM66.2141 21C66.0807 21 65.9674 20.9533 65.8741 20.86C65.7807 20.7667 65.7341 20.6533 65.7341 20.52V11.1C65.7341 10.9667 65.7807 10.8533 65.8741 10.76C65.9674 10.6533 66.0807 10.6 66.2141 10.6H67.8341C67.9807 10.6 68.1007 10.6467 68.1941 10.74C68.2874 10.8333 68.3341 10.9533 68.3341 11.1V11.92C68.6541 11.4933 69.0541 11.1667 69.5341 10.94C70.0274 10.7133 70.5874 10.6 71.2141 10.6H72.0341C72.1807 10.6 72.2941 10.6467 72.3741 10.74C72.4674 10.82 72.5141 10.9333 72.5141 11.08V12.52C72.5141 12.6533 72.4674 12.7667 72.3741 12.86C72.2941 12.9533 72.1807 13 72.0341 13H70.4741C69.8474 13 69.3541 13.18 68.9941 13.54C68.6341 13.9 68.4541 14.3933 68.4541 15.02V20.52C68.4541 20.6533 68.4074 20.7667 68.3141 20.86C68.2207 20.9533 68.1007 21 67.9541 21H66.2141ZM74.5539 21C74.4206 21 74.3072 20.9533 74.2139 20.86C74.1206 20.7667 74.0739 20.6533 74.0739 20.52V11.08C74.0739 10.9467 74.1206 10.8333 74.2139 10.74C74.3072 10.6467 74.4206 10.6 74.5539 10.6H76.1939C76.3272 10.6 76.4406 10.6467 76.5339 10.74C76.6272 10.8333 76.6739 10.9467 76.6739 11.08V11.9C77.4606 10.9 78.5739 10.4 80.0139 10.4C81.2406 10.4 82.2139 10.8067 82.9339 11.62C83.6539 12.42 84.0139 13.5133 84.0139 14.9V20.52C84.0139 20.6533 83.9672 20.7667 83.8739 20.86C83.7939 20.9533 83.6806 21 83.5339 21H81.7739C81.6406 21 81.5272 20.9533 81.4339 20.86C81.3406 20.7667 81.2939 20.6533 81.2939 20.52V15.02C81.2939 14.2333 81.1006 13.6267 80.7139 13.2C80.3406 12.76 79.7939 12.54 79.0739 12.54C78.3672 12.54 77.8072 12.76 77.3939 13.2C76.9939 13.64 76.7939 14.2467 76.7939 15.02V20.52C76.7939 20.6533 76.7472 20.7667 76.6539 20.86C76.5739 20.9533 76.4606 21 76.3139 21H74.5539ZM86.9544 8.88C86.821 8.88 86.7077 8.83333 86.6144 8.74C86.521 8.64667 86.4744 8.53333 86.4744 8.4V6.96C86.4744 6.82667 86.521 6.71333 86.6144 6.62C86.7077 6.52667 86.821 6.48 86.9544 6.48H88.7744C88.9077 6.48 89.021 6.52667 89.1144 6.62C89.221 6.71333 89.2744 6.82667 89.2744 6.96V8.4C89.2744 8.53333 89.2277 8.64667 89.1344 8.74C89.041 8.83333 88.921 8.88 88.7744 8.88H86.9544ZM87.0344 21C86.901 21 86.7877 20.9533 86.6944 20.86C86.601 20.7667 86.5544 20.6533 86.5544 20.52V11.08C86.5544 10.9467 86.601 10.8333 86.6944 10.74C86.7877 10.6467 86.901 10.6 87.0344 10.6H88.6944C88.841 10.6 88.9544 10.6467 89.0344 10.74C89.1277 10.82 89.1744 10.9333 89.1744 11.08V20.52C89.1744 20.6533 89.1277 20.7667 89.0344 20.86C88.9544 20.9533 88.841 21 88.6944 21H87.0344ZM92.3078 21C92.1745 21 92.0611 20.9533 91.9678 20.86C91.8745 20.7667 91.8278 20.6533 91.8278 20.52V11.08C91.8278 10.9467 91.8745 10.8333 91.9678 10.74C92.0611 10.6467 92.1745 10.6 92.3078 10.6H93.9478C94.0811 10.6 94.1945 10.6467 94.2878 10.74C94.3811 10.8333 94.4278 10.9467 94.4278 11.08V11.9C95.2145 10.9 96.3278 10.4 97.7678 10.4C98.9945 10.4 99.9678 10.8067 100.688 11.62C101.408 12.42 101.768 13.5133 101.768 14.9V20.52C101.768 20.6533 101.721 20.7667 101.628 20.86C101.548 20.9533 101.434 21 101.288 21H99.5278C99.3945 21 99.2811 20.9533 99.1878 20.86C99.0945 20.7667 99.0478 20.6533 99.0478 20.52V15.02C99.0478 14.2333 98.8545 13.6267 98.4678 13.2C98.0945 12.76 97.5478 12.54 96.8278 12.54C96.1211 12.54 95.5611 12.76 95.1478 13.2C94.7478 13.64 94.5478 14.2467 94.5478 15.02V20.52C94.5478 20.6533 94.5011 20.7667 94.4078 20.86C94.3278 20.9533 94.2145 21 94.0678 21H92.3078ZM109.008 25.4C107.822 25.4 106.862 25.2 106.128 24.8C105.395 24.4133 104.875 23.9667 104.568 23.46C104.262 22.9533 104.108 22.52 104.108 22.16C104.108 22.04 104.155 21.9333 104.248 21.84C104.355 21.7467 104.468 21.7 104.588 21.7H106.328C106.448 21.7 106.548 21.7267 106.628 21.78C106.722 21.8467 106.795 21.96 106.848 22.12C106.982 22.48 107.195 22.78 107.488 23.02C107.795 23.2733 108.268 23.4 108.908 23.4C109.708 23.4 110.295 23.22 110.668 22.86C111.055 22.5 111.248 21.88 111.248 21V19.64C110.515 20.5067 109.488 20.94 108.168 20.94C106.782 20.94 105.735 20.5133 105.028 19.66C104.335 18.8067 103.962 17.66 103.908 16.22L103.888 15.68L103.908 15.14C103.962 13.7267 104.342 12.5867 105.048 11.72C105.755 10.84 106.795 10.4 108.168 10.4C108.875 10.4 109.495 10.5333 110.028 10.8C110.562 11.0667 111.008 11.4333 111.368 11.9V11.1C111.368 10.9533 111.415 10.8333 111.508 10.74C111.602 10.6467 111.715 10.6 111.848 10.6H113.468C113.602 10.6 113.715 10.6533 113.808 10.76C113.902 10.8533 113.948 10.9667 113.948 11.1L113.968 20.74C113.968 22.22 113.555 23.3667 112.728 24.18C111.902 24.9933 110.662 25.4 109.008 25.4ZM108.908 18.82C109.668 18.82 110.235 18.58 110.608 18.1C110.995 17.62 111.208 17.0333 111.248 16.34C111.262 16.2333 111.268 16.0133 111.268 15.68C111.268 15.36 111.262 15.1467 111.248 15.04C111.208 14.3333 110.995 13.74 110.608 13.26C110.235 12.78 109.668 12.54 108.908 12.54C107.468 12.54 106.708 13.4267 106.628 15.2L106.608 15.68C106.608 16.6267 106.775 17.3867 107.108 17.96C107.455 18.5333 108.055 18.82 108.908 18.82ZM120.573 21.2C119.573 21.2 118.733 21.0533 118.053 20.76C117.373 20.4533 116.866 20.1 116.533 19.7C116.213 19.2867 116.053 18.9333 116.053 18.64C116.053 18.5067 116.099 18.4 116.193 18.32C116.286 18.24 116.393 18.2 116.513 18.2H118.093C118.213 18.2 118.313 18.2467 118.393 18.34C118.446 18.38 118.586 18.5 118.813 18.7C119.039 18.9133 119.306 19.08 119.613 19.2C119.919 19.32 120.259 19.38 120.633 19.38C121.166 19.38 121.606 19.2733 121.953 19.06C122.299 18.8467 122.473 18.5533 122.473 18.18C122.473 17.9 122.393 17.6733 122.233 17.5C122.086 17.3267 121.813 17.1733 121.413 17.04C121.013 16.8933 120.419 16.74 119.633 16.58C118.499 16.34 117.659 15.9733 117.113 15.48C116.579 14.9867 116.313 14.3333 116.313 13.52C116.313 12.9867 116.473 12.4867 116.793 12.02C117.113 11.54 117.586 11.1533 118.213 10.86C118.853 10.5533 119.613 10.4 120.493 10.4C121.386 10.4 122.159 10.5467 122.813 10.84C123.466 11.12 123.959 11.46 124.293 11.86C124.639 12.2467 124.813 12.5933 124.813 12.9C124.813 13.02 124.766 13.1267 124.673 13.22C124.593 13.3 124.493 13.34 124.373 13.34H122.893C122.786 13.34 122.673 13.2933 122.553 13.2C122.459 13.1333 122.313 13.0067 122.113 12.82C121.913 12.6333 121.679 12.4867 121.413 12.38C121.146 12.2733 120.833 12.22 120.473 12.22C119.979 12.22 119.593 12.3267 119.313 12.54C119.046 12.7533 118.913 13.0333 118.913 13.38C118.913 13.6333 118.979 13.84 119.113 14C119.246 14.16 119.506 14.3133 119.893 14.46C120.279 14.6067 120.859 14.7533 121.633 14.9C122.913 15.1533 123.826 15.5467 124.373 16.08C124.933 16.6133 125.213 17.2667 125.213 18.04C125.213 18.9733 124.806 19.7333 123.993 20.32C123.179 20.9067 122.039 21.2 120.573 21.2Z" fill="#344563"/>
<path fill-rule="evenodd" clip-rule="evenodd" d="M19.9105 4.43225C18.6302 -1.83567 6.52128 -1.10798 2.56219 4.43225C-1.20828 9.70852 -0.685014 25.2799 3.26279 26.7516C6.1508 28.7463 13.8019 28.2866 15.1296 25.8298C15.8246 24.544 14.5163 21.929 12.9082 19.4884C17.025 14.379 20.6179 7.89527 19.9105 4.43225Z" fill="#F64C71"/>
<path fill-rule="evenodd" clip-rule="evenodd" d="M2.56219 4.43225C6.52128 -1.10798 18.6302 -1.83567 19.9105 4.43225C21.1908 10.7002 8.38365 26.8636 3.88087 26.8636C-0.621915 26.8636 -1.3969 9.97247 2.56219 4.43225Z" fill="#242582"/>
</svg>
