<svg width="140" height="44" viewBox="0 0 140 44" fill="none" xmlns="http://www.w3.org/2000/svg">
<path d="M21.694 17.3757L20.5403 18.5294V35.9707H22.8477V18.5294L21.694 17.3757Z" fill="white"/>
<path d="M21.694 12.0596L22.8477 13.2133V10.6797L21.694 9.526L20.5403 10.6797V13.2133L21.694 12.0596Z" fill="white"/>
<path d="M19.8165 25.61L16.1292 21.9227L21.6941 16.3578L27.259 21.9227L23.5716 25.61V28.8901L30.5391 21.9227L21.6941 13.0776L12.849 21.9227L19.8165 28.8901V25.61Z" fill="#00D5BB"/>
<path d="M23.8676 35.1442V31.8867H21.8091V35.1442H23.8676Z" fill="white"/>
<path d="M24.6056 32.6388V31.0553H23.5198V32.6388H24.6056Z" fill="white"/>
<path d="M24.6086 35.9672V34.3837H23.5227V35.9672H24.6086Z" fill="white"/>
<path d="M21.6941 12.1049L15.7446 6.1554L21.6941 0.205933L27.6435 6.1554L21.6941 12.1049ZM19.0247 6.1554L21.6941 8.82475L24.3634 6.1554L21.6941 3.48606L19.0247 6.1554Z" fill="white"/>
<path d="M21.6941 43.5941L0 21.9L15.0433 6.85669L16.6947 8.48544L3.28013 21.9L21.6941 40.314L40.108 21.9L26.6934 8.48544L28.3448 6.85669L43.3882 21.9L21.6941 43.5941Z" fill="#00D5BB"/>
<path d="M46.4873 13.7336H50.7628V20.8821L52.8666 18.2806C53.6131 17.3531 54.7442 16.8102 55.9431 16.8102H58.8839L54.6537 21.6964L58.997 28.9806H54.2918L51.8486 24.8408L50.7402 26.1303V28.9806H46.4647V13.7336H46.4873Z" fill="white"/>
<path d="M59.1328 22.9406V22.8954C59.1328 19.5021 61.5533 16.8102 64.9917 16.8102C68.9957 16.8102 70.8507 19.751 70.8507 23.1668C70.8507 23.4157 70.8507 23.7324 70.8281 24.0038H63.0463C63.363 25.2706 64.2905 25.904 65.5573 25.904C66.53 25.904 67.2991 25.5421 68.1361 24.7277L70.3983 26.6053C69.2898 28.0305 67.6611 28.958 65.3537 28.958C61.689 28.9806 59.1328 26.5375 59.1328 22.9406ZM67.0277 21.9227C66.8693 20.6332 66.1228 19.8188 65.0144 19.8188C63.9511 19.8188 63.2046 20.6558 63.001 21.9227H67.0277Z" fill="white"/>
<path d="M72.2533 32.0797V28.9806H74.9226C75.6013 28.9806 76.0537 28.3019 75.8275 27.6685L71.4615 16.8102H75.918L78.3385 24.1396L79.7636 19.6153C80.2839 17.9639 81.8222 16.8328 83.5414 16.8328H85.0118L80.5554 28.6865C79.4922 31.5142 78.1801 32.1024 75.7596 32.1024C74.2666 32.1024 72.2533 32.0797 72.2533 32.0797Z" fill="white"/>
<path d="M87.2061 25.0444V20.2034H84.5368L85.781 16.8101H87.2061V13.7562H91.4137V16.8328H94.1962V20.226H91.4137V24.23C91.4137 25.067 91.7983 25.4289 92.5674 25.4289C93.1103 25.4289 93.6533 25.2706 94.1509 25.0218V28.3245C93.4044 28.7543 92.4091 29.0032 91.2327 29.0032C88.6991 29.0032 87.2061 27.8947 87.2061 25.0444Z" fill="white"/>
<path d="M96.0964 16.8328H100.372V19.4795C101.073 17.8281 102.182 16.7423 104.218 16.8328V21.3118H103.833C101.616 21.3118 100.349 22.6013 100.349 25.4063V28.9805H96.0738V16.8328H96.0964Z" fill="white"/>
<path d="M105.62 24.5241V16.8328H109.896V23.4156C109.896 24.7503 110.597 25.4516 111.615 25.4516C112.633 25.4516 113.379 24.7277 113.379 23.4156V16.8328H117.655V28.9805H113.379V27.0803C112.588 28.0983 111.479 29.0032 109.737 29.0032C107.158 29.0032 105.62 27.2839 105.62 24.5241Z" fill="white"/>
<path d="M119.238 27.2387L120.777 24.773C122.111 25.6552 123.582 26.1076 124.781 26.1076C125.482 26.1076 125.821 25.8814 125.821 25.4742V25.429C125.821 24.9766 125.165 24.773 123.944 24.4336C121.636 23.8229 119.804 23.0537 119.804 20.7011V20.6558C119.804 18.1901 121.794 16.8102 124.486 16.8102C126.183 16.8102 127.948 17.3079 129.282 18.1675L127.88 20.7463C126.681 20.0677 125.369 19.6605 124.441 19.6605C123.808 19.6605 123.491 19.8867 123.491 20.226V20.2713C123.491 20.7237 124.17 20.9499 125.391 21.3119C127.699 21.9679 129.531 22.7596 129.531 25.0218V25.067C129.531 27.6233 127.608 28.958 124.781 28.958C122.79 28.9806 120.844 28.415 119.238 27.2387Z" fill="white"/>
<path d="M131.997 24.9539V20.2712H130.549V16.8328H131.997V13.7562H136.272V16.8328H139.1V20.2712H136.272V24.1395C136.272 24.9991 136.657 25.3611 137.449 25.3611C138.014 25.3611 138.557 25.2027 139.055 24.9539V28.3019C138.286 28.7317 137.29 29.0032 136.091 29.0032C133.512 28.9805 131.997 27.8495 131.997 24.9539Z" fill="white"/>
<path d="M91.4816 37.6447C91.3006 37.7804 91.1196 37.8935 90.916 37.984C90.7124 38.0745 90.5089 38.1423 90.2826 38.1876C90.0564 38.2328 89.8076 38.2554 89.5135 38.2554C89.0611 38.2554 88.6539 38.165 88.2919 38.0066C87.93 37.8482 87.5907 37.622 87.3192 37.3506C87.0478 37.0791 86.8215 36.7398 86.6858 36.3778C86.5275 35.9933 86.4596 35.6087 86.4596 35.1563C86.4596 34.7265 86.5275 34.3193 86.6858 33.9573C86.8442 33.5728 87.0478 33.2561 87.3192 32.962C87.5907 32.6905 87.93 32.4643 88.2919 32.306C88.6765 32.1476 89.0837 32.0571 89.5361 32.0571C89.8076 32.0571 90.079 32.0798 90.2826 32.125C90.5089 32.1702 90.7124 32.2381 90.916 32.306C91.1196 32.3965 91.278 32.4869 91.459 32.6C91.6173 32.7132 91.7757 32.8489 91.934 32.9846L91.459 33.4823C91.1875 33.2335 90.916 33.0525 90.622 32.8941C90.3279 32.7358 89.9659 32.6679 89.5361 32.6679C89.1968 32.6679 88.8801 32.7358 88.586 32.8489C88.2919 32.9846 88.0431 33.143 87.8395 33.3692C87.6359 33.5954 87.4549 33.8442 87.3418 34.1609C87.2287 34.455 87.1609 34.7717 87.1609 35.1337C87.1609 35.473 87.2287 35.8123 87.3418 36.1064C87.4549 36.4005 87.6359 36.6719 87.8395 36.8981C88.0431 37.1244 88.2919 37.3053 88.586 37.4184C88.8801 37.5542 89.1968 37.5994 89.5361 37.5994C89.9659 37.5994 90.3279 37.5315 90.622 37.3732C90.916 37.2148 91.2327 37.0113 91.5042 36.7398L91.9566 37.1696C91.8209 37.3732 91.6399 37.5315 91.4816 37.6447Z" fill="#00D5BB"/>
<path d="M101.322 38.2554H100.575L99.8516 36.6266H96.5262L95.8023 38.2554H95.101L97.8835 32.0797H98.5395L101.322 38.2554ZM98.2002 32.8941L96.7977 36.0159H99.5801L98.2002 32.8941Z" fill="#00D5BB"/>
<path d="M109.375 34.9527C109.24 35.2015 109.081 35.4051 108.855 35.5861C108.629 35.7444 108.38 35.8802 108.086 35.9707C107.792 36.0612 107.475 36.1064 107.158 36.1064H105.665V38.2554H104.964V32.125H107.249C107.588 32.125 107.905 32.1702 108.199 32.2607C108.47 32.3512 108.719 32.4869 108.923 32.6453C109.126 32.8036 109.285 33.0072 109.375 33.2561C109.488 33.5049 109.534 33.7764 109.534 34.0705C109.556 34.4098 109.488 34.7039 109.375 34.9527ZM108.425 33.1203C108.131 32.8941 107.724 32.781 107.226 32.781H105.665V35.473H107.181C107.43 35.473 107.656 35.4504 107.86 35.3825C108.063 35.3146 108.244 35.2242 108.403 35.111C108.561 34.9979 108.674 34.8396 108.742 34.6812C108.81 34.5229 108.855 34.3193 108.855 34.1157C108.878 33.6633 108.719 33.3239 108.425 33.1203Z" fill="#00D5BB"/>
<path d="M114.013 32.125V38.2554H113.334V32.125H114.013Z" fill="#00D5BB"/>
<path d="M120.573 38.2554H119.894V32.781H117.836V32.1476H122.631V32.781H120.573V38.2554Z" fill="#00D5BB"/>
<path d="M131.296 38.2554H130.549L129.825 36.6266H126.5L125.776 38.2554H125.075L127.857 32.0797H128.513L131.296 38.2554ZM128.174 32.8941L126.771 36.0159H129.554L128.174 32.8941Z" fill="#00D5BB"/>
<path d="M134.96 32.125H135.662V37.5994H139.1V38.2328H134.96V32.125Z" fill="#00D5BB"/>
</svg>
