<svg width="39" height="39" viewBox="0 0 39 39" fill="none" xmlns="http://www.w3.org/2000/svg">
<path fill-rule="evenodd" clip-rule="evenodd" d="M8.59469 9.94958H29.6731C30.5568 9.94958 31.2731 10.6659 31.2731 11.5496C31.2731 11.5514 31.2731 11.5531 31.2731 11.5549L31.2251 25.9211C31.2222 26.8026 30.5067 27.5157 29.6251 27.5157H8.5787C7.69504 27.5157 6.9787 26.7994 6.9787 25.9157C6.9787 25.9151 6.9787 25.9146 6.9787 25.914L6.99469 11.5478C6.99567 10.6648 7.71173 9.94958 8.59469 9.94958Z" stroke="#979797" stroke-width="2.4" stroke-linejoin="round"/>
<path d="M18.4414 21.6692C18.9459 22.099 19.7033 22.0384 20.133 21.5339C20.5628 21.0294 20.5022 20.272 19.9977 19.8422L18.4414 21.6692ZM8.19909 9.79213C7.69457 9.36238 6.93719 9.42299 6.50744 9.92751C6.07769 10.432 6.1383 11.1894 6.64281 11.6192L8.19909 9.79213ZM31.74 11.6172C32.2434 11.1863 32.3022 10.4287 31.8712 9.92527C31.4402 9.4218 30.6827 9.36305 30.1792 9.79404L31.74 11.6172ZM18.4391 19.8441C17.9357 20.2751 17.8769 21.0327 18.3079 21.5361C18.7389 22.0396 19.4964 22.0983 19.9999 21.6673L18.4391 19.8441ZM19.9977 19.8422C16.0648 16.4922 13.1152 13.9797 11.1487 12.3047C10.1655 11.4671 9.4281 10.839 8.9365 10.4203C8.6907 10.2109 8.50633 10.0538 8.38344 9.94916C8.322 9.89683 8.27589 9.85755 8.24517 9.83139C8.22979 9.81828 8.21831 9.80851 8.21061 9.80194C8.20672 9.79863 8.20393 9.79626 8.20197 9.79458C8.20095 9.79372 8.20034 9.7932 8.19981 9.79274C8.19945 9.79244 8.1995 9.79248 8.19927 9.79228C8.19921 9.79223 8.19916 9.79219 8.19913 9.79217C8.1991 9.79214 8.19909 9.79213 7.42095 10.7056C6.64281 11.6192 6.64283 11.6192 6.64286 11.6192C6.64289 11.6192 6.64293 11.6193 6.643 11.6193C6.643 11.6193 6.64341 11.6197 6.64354 11.6198C6.64396 11.6201 6.64479 11.6208 6.6457 11.6216C6.64757 11.6232 6.65054 11.6257 6.65434 11.629C6.662 11.6355 6.67356 11.6453 6.6889 11.6584C6.71964 11.6846 6.76571 11.7238 6.82717 11.7762C6.95008 11.8809 7.13442 12.0379 7.38023 12.2473C7.87183 12.666 8.60925 13.2942 9.59246 14.1317C11.5589 15.8067 14.5085 18.3192 18.4414 21.6692L19.9977 19.8422ZM30.9596 10.7056C30.1792 9.79404 30.1792 9.79406 30.1792 9.79408C30.1791 9.79411 30.1791 9.79415 30.179 9.7942C30.179 9.79424 30.1787 9.79451 30.1785 9.79466C30.178 9.79509 30.1773 9.79565 30.1764 9.7965C30.1744 9.79813 30.1716 9.80059 30.1678 9.80386C30.1601 9.8104 30.1486 9.82022 30.1334 9.8333C30.1028 9.85948 30.0569 9.89873 29.9958 9.95108C29.8735 10.0558 29.6901 10.2128 29.4455 10.4222C28.9563 10.8409 28.2225 11.4691 27.2442 12.3066C25.2875 13.9816 22.3525 16.4941 18.4391 19.8441L19.9999 21.6673C23.9133 18.3173 26.8483 15.8048 28.805 14.1298C29.7833 13.2923 30.517 12.6641 31.0062 12.2454C31.2508 12.036 31.4342 11.879 31.5565 11.7743C31.6177 11.7219 31.6635 11.6827 31.6941 11.6565C31.7094 11.6434 31.7209 11.6336 31.7285 11.6271C31.7323 11.6238 31.7352 11.6213 31.7371 11.6197C31.738 11.6189 31.7388 11.6182 31.7393 11.6179C31.7396 11.6176 31.7396 11.6176 31.7398 11.6174C31.7399 11.6173 31.7399 11.6173 31.7399 11.6173C31.74 11.6173 31.74 11.6172 30.9596 10.7056Z" fill="#979797"/>
</svg>
