<svg width="18" height="21" viewBox="0 0 18 21" fill="none" xmlns="http://www.w3.org/2000/svg">
<path fill-rule="evenodd" clip-rule="evenodd" d="M0.00140302 3.66748C-0.0334235 2.54023 0.581605 1.39017 1.68251 0.745345C2.78309 0.100721 4.07191 0.135187 5.01671 0.72889C4.08328 0.919265 3.15586 1.26792 2.27484 1.78395C1.39296 2.30048 0.630987 2.94171 0.00140302 3.66748ZM13.7055 15.8719C13.7966 17.0419 13.1772 18.2597 12.0318 18.9305C10.8864 19.6014 9.5371 19.5368 8.58391 18.8717L13.7055 15.8719ZM3.18166 2.87747C0.139147 4.65942 -0.903295 8.60602 0.853301 11.6925L3.07892 15.603L2.8218 19.6473C2.79208 20.1148 3.28804 20.4273 3.68804 20.1931L17.7108 11.9801C18.1108 11.7459 18.092 11.1539 17.678 10.9462L14.0968 9.14996L11.8712 5.23944C10.1146 2.15301 6.22418 1.09552 3.18166 2.87747Z" fill="#5E6C84"/>
</svg>
