<svg width="14" height="14" viewBox="0 0 14 14" fill="none" xmlns="http://www.w3.org/2000/svg">
<path d="M7.00005 0.333344C6.47442 0.333344 5.9676 0.39982 5.48377 0.51238C5.38288 0.535929 5.29179 0.590234 5.2231 0.667791C5.15441 0.745347 5.1115 0.842325 5.10031 0.945323L4.99419 1.91277C4.95948 2.2298 4.77635 2.51029 4.50005 2.66993C4.2243 2.82925 3.88959 2.8469 3.59771 2.71876H3.59705L2.70838 2.32748C2.61359 2.28577 2.50819 2.27452 2.40673 2.29527C2.30528 2.31603 2.21276 2.36778 2.14198 2.44337C1.45114 3.17987 0.920943 4.0717 0.619841 5.06707C0.589848 5.16614 0.591338 5.27207 0.624106 5.37026C0.656874 5.46845 0.719304 5.55404 0.802783 5.61524L1.59119 6.19337C1.84865 6.38265 2.00005 6.68094 2.00005 7.00001C2.00005 7.31925 1.84865 7.61779 1.59119 7.80665L0.802783 8.38412C0.719304 8.44533 0.656874 8.53092 0.624106 8.62911C0.591338 8.7273 0.589848 8.83323 0.619841 8.9323C0.920911 9.92757 1.45069 10.82 2.14198 11.5567C2.21284 11.6321 2.30539 11.6838 2.40684 11.7044C2.5083 11.725 2.61366 11.7137 2.70838 11.6719L3.59705 11.2806C3.88908 11.1522 4.22411 11.1707 4.50005 11.3301C4.77635 11.4897 4.95948 11.7702 4.99419 12.0872L5.10031 13.0547C5.11159 13.1575 5.15446 13.2543 5.22301 13.3317C5.29157 13.4091 5.38245 13.4634 5.48312 13.487C5.96717 13.6 6.47442 13.6667 7.00005 13.6667C7.52568 13.6667 8.03249 13.6002 8.51632 13.4876C8.61722 13.4641 8.7083 13.4098 8.777 13.3322C8.84569 13.2547 8.8886 13.1577 8.89979 13.0547L9.00591 12.0872C9.04061 11.7702 9.22375 11.4897 9.50005 11.3301C9.7758 11.1708 10.1105 11.1525 10.4024 11.2806L11.2917 11.6719C11.3864 11.7137 11.4918 11.725 11.5933 11.7044C11.6947 11.6838 11.7873 11.6321 11.8581 11.5567C12.549 10.8201 13.0792 9.92767 13.3803 8.9323C13.4103 8.83323 13.4088 8.7273 13.376 8.62911C13.3432 8.53092 13.2808 8.44533 13.1973 8.38412L12.4089 7.80665C12.1514 7.61779 12 7.31925 12 7.00001C12 6.68077 12.1514 6.38223 12.4089 6.19337L13.1973 5.6159C13.2808 5.5547 13.3432 5.4691 13.376 5.37091C13.4088 5.27272 13.4103 5.16679 13.3803 5.06772C13.0792 4.07235 12.549 3.17987 11.8581 2.44337C11.7873 2.36789 11.6947 2.31627 11.5933 2.29563C11.4918 2.27498 11.3864 2.28634 11.2917 2.32814L10.4024 2.71941C10.1105 2.84755 9.7758 2.82925 9.50005 2.66993C9.22375 2.51029 9.04061 2.2298 9.00591 1.91277L8.89979 0.945323C8.88851 0.842528 8.84564 0.745758 8.77708 0.668338C8.70853 0.590919 8.61765 0.536659 8.51698 0.513031C8.03293 0.400062 7.52568 0.333344 7.00005 0.333344ZM7.00005 1.33334C7.32482 1.33334 7.63669 1.39164 7.94927 1.44662L8.01177 2.02149C8.08106 2.65447 8.44902 3.21746 9.00005 3.53582C9.55144 3.85439 10.2227 3.89101 10.8054 3.63478L11.334 3.40235C11.74 3.88981 12.0614 4.4404 12.2859 5.04363L11.8171 5.38738C11.3039 5.76385 11 6.36325 11 7.00001C11 7.63677 11.3039 8.23617 11.8171 8.61264L12.2859 8.95639C12.0614 9.55962 11.74 10.1102 11.334 10.5977L10.8054 10.3652C10.2227 10.109 9.55144 10.1456 9.00005 10.4642C8.44902 10.7826 8.08106 11.3456 8.01177 11.9785L7.94927 12.5534C7.63672 12.6082 7.32466 12.6667 7.00005 12.6667C6.67528 12.6667 6.36341 12.6084 6.05083 12.5534L5.98833 11.9785C5.91904 11.3456 5.55108 10.7826 5.00005 10.4642C4.44866 10.1456 3.77735 10.109 3.19471 10.3652L2.66606 10.5977C2.26004 10.1103 1.9387 9.55966 1.71424 8.95639L2.18299 8.61264C2.6962 8.23617 3.00005 7.63677 3.00005 7.00001C3.00005 6.36325 2.69596 5.76346 2.18299 5.38673L1.71424 5.04298C1.93883 4.43952 2.26053 3.88929 2.66672 3.4017L3.19471 3.63412C3.77735 3.89036 4.44866 3.85439 5.00005 3.53582C5.55108 3.21746 5.91904 2.65447 5.98833 2.02149L6.05083 1.44662C6.36338 1.39179 6.67544 1.33334 7.00005 1.33334ZM7.00005 4.33334C5.53321 4.33334 4.33338 5.53317 4.33338 7.00001C4.33338 8.46685 5.53321 9.66668 7.00005 9.66668C8.46689 9.66668 9.66672 8.46685 9.66672 7.00001C9.66672 5.53317 8.46689 4.33334 7.00005 4.33334ZM7.00005 5.33334C7.92645 5.33334 8.66672 6.07361 8.66672 7.00001C8.66672 7.92641 7.92645 8.66668 7.00005 8.66668C6.07365 8.66668 5.33338 7.92641 5.33338 7.00001C5.33338 6.07361 6.07365 5.33334 7.00005 5.33334Z" fill="black"/>
</svg>
