<svg width="20" height="20" viewBox="0 0 20 20" fill="none" xmlns="http://www.w3.org/2000/svg">
<path d="M9.99995 0C6.73203 0 3.82553 1.57458 1.99995 4.00586V2.25C2.00139 2.14962 1.98267 2.04997 1.94488 1.95695C1.9071 1.86394 1.85103 1.77946 1.78 1.70852C1.70896 1.63758 1.62441 1.58161 1.53135 1.54395C1.43829 1.50629 1.33862 1.48769 1.23823 1.48926C1.03949 1.49236 0.850109 1.57423 0.711681 1.71686C0.573254 1.8595 0.497102 2.05125 0.499953 2.25V5.75C0.499973 5.94891 0.578997 6.13966 0.719645 6.28031C0.860293 6.42096 1.05105 6.49998 1.24995 6.5H4.74995C4.84934 6.50141 4.94801 6.48305 5.04024 6.44598C5.13246 6.40892 5.2164 6.3539 5.28718 6.28412C5.35796 6.21434 5.41416 6.13118 5.45252 6.03949C5.49088 5.9478 5.51063 5.84939 5.51063 5.75C5.51063 5.65061 5.49088 5.5522 5.45252 5.46051C5.41416 5.36882 5.35796 5.28566 5.28718 5.21588C5.2164 5.1461 5.13246 5.09108 5.04024 5.05402C4.94801 5.01696 4.84934 4.9986 4.74995 5H3.12495C4.66949 2.8791 7.16954 1.5 9.99995 1.5C14.7031 1.5 18.5 5.29685 18.5 10C18.5 14.7031 14.7031 18.5 9.99995 18.5C5.29681 18.5 1.49995 14.7031 1.49995 10C1.50136 9.90062 1.483 9.80194 1.44594 9.70972C1.40888 9.61749 1.35386 9.53355 1.28407 9.46277C1.21429 9.392 1.13114 9.33579 1.03944 9.29743C0.94775 9.25907 0.849347 9.23932 0.749953 9.23932C0.650559 9.23932 0.552156 9.25907 0.460463 9.29743C0.368771 9.33579 0.285616 9.392 0.215833 9.46277C0.14605 9.53355 0.0910289 9.61749 0.0539686 9.70972C0.0169083 9.80194 -0.0014526 9.90062 -4.70644e-05 10C-4.70644e-05 15.5139 4.4861 20 9.99995 20C15.5138 20 20 15.5139 20 10C20 4.48615 15.5138 0 9.99995 0ZM9.73824 4.48926C9.53949 4.49236 9.35011 4.57423 9.21168 4.71686C9.07325 4.8595 8.9971 5.05125 8.99995 5.25V11.25C8.99997 11.4489 9.079 11.6397 9.21965 11.7803C9.36029 11.921 9.55105 12 9.74995 12H13.75C13.8493 12.0014 13.948 11.983 14.0402 11.946C14.1325 11.9089 14.2164 11.8539 14.2872 11.7841C14.358 11.7143 14.4142 11.6312 14.4525 11.5395C14.4909 11.4478 14.5106 11.3494 14.5106 11.25C14.5106 11.1506 14.4909 11.0522 14.4525 10.9605C14.4142 10.8688 14.358 10.7857 14.2872 10.7159C14.2164 10.6461 14.1325 10.5911 14.0402 10.554C13.948 10.517 13.8493 10.4986 13.75 10.5H10.5V5.25C10.5014 5.14962 10.4827 5.04997 10.4449 4.95695C10.4071 4.86394 10.351 4.77946 10.28 4.70852C10.209 4.63758 10.1244 4.58161 10.0314 4.54395C9.93829 4.50629 9.83862 4.48769 9.73824 4.48926Z" fill="#23286B"/>
</svg>
