<svg>
	<defs>
		<svg id="home" width="16" height="16" viewBox="0 0 16 16" fill="none" xmlns="http://www.w3.org/2000/svg">
			<path
				d="M3.5 2C2.6775 2 2 2.6775 2 3.5V4.5C2 5.3225 2.6775 6 3.5 6H6.16667C6.98917 6 7.66667 5.3225 7.66667 4.5V3.5C7.66667 2.6775 6.98917 2 6.16667 2H3.5ZM9.83333 2C9.01083 2 8.33333 2.6775 8.33333 3.5V7.83333C8.33333 8.65583 9.01083 9.33333 9.83333 9.33333H12.5C13.3225 9.33333 14 8.65583 14 7.83333V3.5C14 2.6775 13.3225 2 12.5 2H9.83333ZM3.5 3H6.16667C6.44883 3 6.66667 3.21783 6.66667 3.5V4.5C6.66667 4.78217 6.44883 5 6.16667 5H3.5C3.21783 5 3 4.78217 3 4.5V3.5C3 3.21783 3.21783 3 3.5 3ZM9.83333 3H12.5C12.7822 3 13 3.21783 13 3.5V7.83333C13 8.1155 12.7822 8.33333 12.5 8.33333H9.83333C9.55117 8.33333 9.33333 8.1155 9.33333 7.83333V3.5C9.33333 3.21783 9.55117 3 9.83333 3ZM3.5 6.66667C2.6775 6.66667 2 7.34417 2 8.16667V12.5C2 13.3225 2.6775 14 3.5 14H6.16667C6.98917 14 7.66667 13.3225 7.66667 12.5V8.16667C7.66667 7.34417 6.98917 6.66667 6.16667 6.66667H3.5ZM3.5 7.66667H6.16667C6.44883 7.66667 6.66667 7.8845 6.66667 8.16667V12.5C6.66667 12.7822 6.44883 13 6.16667 13H3.5C3.21783 13 3 12.7822 3 12.5V8.16667C3 7.8845 3.21783 7.66667 3.5 7.66667ZM9.83333 10C9.01083 10 8.33333 10.6775 8.33333 11.5V12.5C8.33333 13.3225 9.01083 14 9.83333 14H12.5C13.3225 14 14 13.3225 14 12.5V11.5C14 10.6775 13.3225 10 12.5 10H9.83333ZM9.83333 11H12.5C12.7822 11 13 11.2178 13 11.5V12.5C13 12.7822 12.7822 13 12.5 13H9.83333C9.55117 13 9.33333 12.7822 9.33333 12.5V11.5C9.33333 11.2178 9.55117 11 9.83333 11Z"
				fill="black"
			/>
		</svg>

		<svg id="time" width="17" height="17" viewBox="0 0 17 17" fill="none" xmlns="http://www.w3.org/2000/svg">
			<path
				d="M8.04395 0.634033C3.63257 0.634033 0.0439453 4.22266 0.0439453 8.63403C0.0439453 13.0454 3.63257 16.634 8.04395 16.634C12.4553 16.634 16.0439 13.0454 16.0439 8.63403C16.0439 4.22266 12.4553 0.634033 8.04395 0.634033ZM11.8486 12.772C11.7186 12.902 11.548 12.9674 11.3773 12.9674C11.2067 12.9674 11.0359 12.902 10.906 12.772L7.57263 9.43872C7.44727 9.31409 7.37732 9.14465 7.37732 8.96741V4.63403C7.37732 4.26538 7.6759 3.96741 8.04395 3.96741C8.41199 3.96741 8.71057 4.26538 8.71057 4.63403V8.69141L11.8486 11.8293C12.1093 12.0901 12.1093 12.5114 11.8486 12.772Z"
				fill="#23286B"
			/>
		</svg>

		<svg id="dashboard" width="13" height="13" viewBox="0 0 13 13" fill="none" xmlns="http://www.w3.org/2000/svg">
			<path
				d="M0.492239 0.992798C0.359744 0.994868 0.233489 1.04944 0.141204 1.14454C0.0489186 1.23963 -0.00184916 1.36746 5.15086e-05 1.49996V12.5C6.4767e-05 12.6326 0.0527475 12.7597 0.146513 12.8535C0.240278 12.9473 0.367447 12.9999 0.500051 13H11.5001C11.5663 13.0009 11.6321 12.9887 11.6936 12.9639C11.7551 12.9392 11.811 12.9026 11.8582 12.856C11.9054 12.8095 11.9429 12.7541 11.9684 12.693C11.994 12.6318 12.0072 12.5662 12.0072 12.5C12.0072 12.4337 11.994 12.3681 11.9684 12.307C11.9429 12.2458 11.9054 12.1904 11.8582 12.1439C11.811 12.0974 11.7551 12.0607 11.6936 12.036C11.6321 12.0113 11.5663 11.999 11.5001 12H1.00005V1.49996C1.00101 1.43304 0.988527 1.3666 0.963339 1.3046C0.938151 1.24259 0.900771 1.18627 0.853415 1.13897C0.806059 1.09168 0.74969 1.05437 0.68765 1.02926C0.625609 1.00415 0.55916 0.991752 0.492239 0.992798ZM11.5254 1.9941C11.4358 1.99028 11.3469 2.01063 11.2678 2.05301C11.1888 2.09539 11.1226 2.15824 11.0762 2.23499L8.96229 5.61715L7.89979 4.19983C7.85058 4.13426 7.786 4.0818 7.71175 4.04706C7.63749 4.01232 7.55583 3.99637 7.47396 4.00061C7.39209 4.00486 7.31252 4.02917 7.24225 4.0714C7.17199 4.11363 7.11318 4.17249 7.07102 4.2428L5.45383 6.93811L4.39979 5.53316C4.35135 5.46871 4.28804 5.41692 4.21526 5.38223C4.14248 5.34753 4.06239 5.33094 3.98181 5.33388C3.90124 5.33682 3.82257 5.35921 3.75251 5.39912C3.68246 5.43903 3.62309 5.4953 3.57948 5.56311L2.07948 7.89644C2.04194 7.95166 2.01584 8.01383 2.00271 8.07929C1.98959 8.14475 1.98971 8.21218 2.00306 8.27759C2.01641 8.34301 2.04273 8.40509 2.08046 8.46017C2.11818 8.51525 2.16656 8.56222 2.22273 8.59831C2.27891 8.63439 2.34173 8.65886 2.40752 8.67028C2.4733 8.68169 2.5407 8.67982 2.60574 8.66477C2.67079 8.64971 2.73216 8.62179 2.78624 8.58264C2.84032 8.54349 2.88601 8.4939 2.92062 8.43681L4.03195 6.70829L5.10031 8.13342C5.14952 8.19899 5.2141 8.25145 5.28836 8.28619C5.36261 8.32093 5.44427 8.33688 5.52614 8.33264C5.60801 8.32839 5.68759 8.30408 5.75785 8.26185C5.82812 8.21962 5.88692 8.16076 5.92909 8.09045L7.54628 5.39514L8.60031 6.80009C8.64907 6.86495 8.71288 6.91697 8.78623 6.95166C8.85958 6.98635 8.94028 7.00267 9.02135 6.99921C9.10242 6.99575 9.18142 6.97261 9.25155 6.9318C9.32168 6.89098 9.38083 6.83371 9.42388 6.76493L11.9239 2.76493C11.9716 2.69096 11.999 2.60569 12.0033 2.51774C12.0075 2.4298 11.9884 2.34229 11.948 2.26407C11.9076 2.18585 11.8472 2.11969 11.773 2.07229C11.6988 2.02488 11.6134 1.99791 11.5254 1.9941Z"
				fill="black"
			/>
		</svg>

		<svg id="courses" width="14" height="13" viewBox="0 0 14 13" fill="none" xmlns="http://www.w3.org/2000/svg">
			<path
				d="M1.83325 0.666656C1.00625 0.666656 0.333252 1.33966 0.333252 2.16666V9.83332C0.333252 10.6603 1.00625 11.3333 1.83325 11.3333H5.11646C4.78212 11.063 4.50901 10.7217 4.31567 10.3333H1.83325C1.55759 10.3333 1.33325 10.109 1.33325 9.83332V2.16666C1.33325 1.89099 1.55759 1.66666 1.83325 1.66666H12.1666C12.4423 1.66666 12.6666 1.89099 12.6666 2.16666V9.83332C12.6666 10.109 12.4423 10.3333 12.1666 10.3333H9.68416C9.49083 10.7217 9.21772 11.063 8.88338 11.3333H12.1666C12.9936 11.3333 13.6666 10.6603 13.6666 9.83332V2.16666C13.6666 1.33966 12.9936 0.666656 12.1666 0.666656H1.83325ZM3.16659 2.99999C3.10033 2.99905 3.03455 3.01129 2.97306 3.036C2.91158 3.06071 2.85562 3.09739 2.80843 3.14391C2.76125 3.19043 2.72378 3.24587 2.69821 3.307C2.67263 3.36813 2.65946 3.43373 2.65946 3.49999C2.65946 3.56625 2.67263 3.63185 2.69821 3.69298C2.72378 3.75411 2.76125 3.80955 2.80843 3.85607C2.85562 3.90259 2.91158 3.93927 2.97306 3.96398C3.03455 3.98869 3.10033 4.00093 3.16659 3.99999H10.8333C10.8995 4.00093 10.9653 3.98869 11.0268 3.96398C11.0883 3.93927 11.1442 3.90259 11.1914 3.85607C11.2386 3.80955 11.2761 3.75411 11.3016 3.69298C11.3272 3.63185 11.3404 3.56625 11.3404 3.49999C11.3404 3.43373 11.3272 3.36813 11.3016 3.307C11.2761 3.24587 11.2386 3.19043 11.1914 3.14391C11.1442 3.09739 11.0883 3.06071 11.0268 3.036C10.9653 3.01129 10.8995 2.99905 10.8333 2.99999H3.16659ZM3.83325 4.99999C3.767 4.99905 3.70121 5.01129 3.63973 5.036C3.57825 5.06071 3.52229 5.09739 3.4751 5.14391C3.42792 5.19043 3.39045 5.24587 3.36487 5.307C3.3393 5.36812 3.32613 5.43373 3.32613 5.49999C3.32613 5.56625 3.3393 5.63185 3.36487 5.69298C3.39045 5.75411 3.42792 5.80955 3.4751 5.85607C3.52229 5.90259 3.57825 5.93927 3.63973 5.96398C3.70121 5.98869 3.767 6.00093 3.83325 5.99999H10.1666C10.2328 6.00093 10.2986 5.98869 10.3601 5.96398C10.4216 5.93927 10.4776 5.90259 10.5247 5.85607C10.5719 5.80955 10.6094 5.75411 10.635 5.69298C10.6605 5.63185 10.6737 5.56625 10.6737 5.49999C10.6737 5.43373 10.6605 5.36812 10.635 5.307C10.6094 5.24587 10.5719 5.19043 10.5247 5.14391C10.4776 5.09739 10.4216 5.06071 10.3601 5.036C10.2986 5.01129 10.2328 4.99905 10.1666 4.99999H3.83325ZM6.99992 6.66666C5.71718 6.66666 4.66659 7.71725 4.66659 8.99999C4.66659 9.78776 5.06368 10.4871 5.66659 10.9101V12.1667C5.66659 12.345 5.76128 12.5096 5.91528 12.5989C6.06962 12.6886 6.25997 12.6896 6.41463 12.6009L6.99992 12.2663L7.58521 12.6009C7.66187 12.6449 7.74759 12.6667 7.83325 12.6667C7.91992 12.6667 8.00689 12.6443 8.08455 12.5989C8.23855 12.5096 8.33325 12.345 8.33325 12.1667V10.9101C8.93616 10.4871 9.33325 9.78776 9.33325 8.99999C9.33325 7.71725 8.28266 6.66666 6.99992 6.66666ZM6.99992 7.66666C7.74222 7.66666 8.33325 8.25769 8.33325 8.99999C8.33325 9.74229 7.74222 10.3333 6.99992 10.3333C6.25762 10.3333 5.66659 9.74229 5.66659 8.99999C5.66659 8.25769 6.25762 7.66666 6.99992 7.66666Z"
				fill="black"
			/>
		</svg>

		<svg id="assessments" width="14" height="12" viewBox="0 0 14 12" fill="none" xmlns="http://www.w3.org/2000/svg">
			<path
				d="M2.50008 0C2.43691 0 2.37478 0.00349349 2.31323 0.00976562C2.19058 0.0222662 2.07148 0.0471097 1.95711 0.0826823C1.38249 0.261415 0.928163 0.71574 0.74943 1.29036C0.713858 1.40473 0.689014 1.52383 0.676514 1.64648C0.676492 1.6467 0.676536 1.64692 0.676514 1.64714C0.670285 1.70847 0.666748 1.77039 0.666748 1.83333V2.5V10.1667C0.666748 11.1733 1.49349 12 2.50008 12H11.5001C12.5067 12 13.3334 11.1733 13.3334 10.1667V2.5V1.83333C13.3334 1.7702 13.33 1.70804 13.3236 1.64648C13.3111 1.52383 13.2863 1.40473 13.2507 1.29036C13.072 0.71574 12.6177 0.261415 12.043 0.0826823C11.9287 0.0471097 11.8096 0.0222662 11.6869 0.00976562C11.6867 0.00974383 11.6865 0.00978733 11.6863 0.00976562C11.6249 0.00346462 11.563 0 11.5001 0H2.50008ZM2.50008 1C2.77608 1 3.00008 1.224 3.00008 1.5C3.00008 1.776 2.77608 2 2.50008 2C2.22408 2 2.00008 1.776 2.00008 1.5C2.00008 1.224 2.22408 1 2.50008 1ZM4.16675 1C4.44275 1 4.66675 1.224 4.66675 1.5C4.66675 1.776 4.44275 2 4.16675 2C3.89075 2 3.66675 1.776 3.66675 1.5C3.66675 1.224 3.89075 1 4.16675 1ZM1.66675 3H12.3334V10.1667C12.3334 10.6327 11.9662 11 11.5001 11H2.50008C2.03401 11 1.66675 10.6327 1.66675 10.1667V3ZM10.8236 4.32878C10.6938 4.33256 10.5705 4.38673 10.4799 4.47982L9.50008 5.45964L9.18693 5.14648C9.14086 5.0985 9.08567 5.06019 9.02461 5.0338C8.96354 5.00741 8.89783 4.99346 8.83131 4.99279C8.76479 4.99211 8.6988 5.00471 8.63722 5.02986C8.57563 5.055 8.51968 5.09218 8.47264 5.13922C8.4256 5.18626 8.38842 5.24221 8.36327 5.3038C8.33813 5.36539 8.32553 5.43138 8.3262 5.4979C8.32688 5.56441 8.34082 5.63013 8.36721 5.69119C8.3936 5.75226 8.43191 5.80744 8.4799 5.85352L9.14657 6.52018C9.24034 6.61392 9.3675 6.66657 9.50008 6.66657C9.63267 6.66657 9.75982 6.61392 9.8536 6.52018L11.1869 5.18685C11.2591 5.1166 11.3083 5.02621 11.3282 4.9275C11.3481 4.8288 11.3378 4.72639 11.2985 4.63367C11.2593 4.54094 11.1929 4.46223 11.1082 4.40783C11.0235 4.35343 10.9243 4.32588 10.8236 4.32878ZM3.16675 5C3.10049 4.99906 3.03471 5.0113 2.97323 5.03601C2.91174 5.06072 2.85578 5.0974 2.8086 5.14392C2.76141 5.19044 2.72394 5.24588 2.69837 5.30701C2.6728 5.36814 2.65963 5.43374 2.65963 5.5C2.65963 5.56626 2.6728 5.63186 2.69837 5.69299C2.72394 5.75412 2.76141 5.80956 2.8086 5.85608C2.85578 5.9026 2.91174 5.93928 2.97323 5.96399C3.03471 5.9887 3.10049 6.00094 3.16675 6H7.16675C7.233 6.00094 7.29879 5.9887 7.36027 5.96399C7.42175 5.93928 7.47771 5.9026 7.5249 5.85608C7.57208 5.80956 7.60955 5.75412 7.63513 5.69299C7.6607 5.63186 7.67387 5.56626 7.67387 5.5C7.67387 5.43374 7.6607 5.36814 7.63513 5.30701C7.60955 5.24588 7.57208 5.19044 7.5249 5.14392C7.47771 5.0974 7.42175 5.06072 7.36027 5.03601C7.29879 5.0113 7.233 4.99906 7.16675 5H3.16675ZM10.8236 7.16211C10.6938 7.16589 10.5705 7.22006 10.4799 7.31315L9.50008 8.29297L9.18693 7.97982C9.14086 7.93183 9.08567 7.89352 9.02461 7.86713C8.96354 7.84074 8.89783 7.8268 8.83131 7.82612C8.76479 7.82544 8.6988 7.83805 8.63722 7.86319C8.57563 7.88834 8.51968 7.92552 8.47264 7.97256C8.4256 8.0196 8.38842 8.07555 8.36327 8.13713C8.33813 8.19872 8.32553 8.26471 8.3262 8.33123C8.32688 8.39775 8.34082 8.46346 8.36721 8.52453C8.3936 8.58559 8.43191 8.64078 8.4799 8.68685L9.14657 9.35352C9.24034 9.44725 9.3675 9.4999 9.50008 9.4999C9.63267 9.4999 9.75982 9.44725 9.8536 9.35352L11.1869 8.02018C11.2591 7.94993 11.3083 7.85954 11.3282 7.76084C11.3481 7.66214 11.3378 7.55972 11.2985 7.467C11.2593 7.37428 11.1929 7.29556 11.1082 7.24116C11.0235 7.18676 10.9243 7.15921 10.8236 7.16211ZM3.16675 8C3.10049 7.99906 3.03471 8.0113 2.97323 8.03601C2.91174 8.06072 2.85578 8.0974 2.8086 8.14392C2.76141 8.19044 2.72394 8.24588 2.69837 8.30701C2.6728 8.36814 2.65963 8.43374 2.65963 8.5C2.65963 8.56626 2.6728 8.63186 2.69837 8.69299C2.72394 8.75412 2.76141 8.80956 2.8086 8.85608C2.85578 8.9026 2.91174 8.93928 2.97323 8.96399C3.03471 8.9887 3.10049 9.00094 3.16675 9H7.16675C7.233 9.00094 7.29879 8.9887 7.36027 8.96399C7.42175 8.93928 7.47771 8.9026 7.5249 8.85608C7.57208 8.80956 7.60955 8.75412 7.63513 8.69299C7.6607 8.63186 7.67387 8.56626 7.67387 8.5C7.67387 8.43374 7.6607 8.36814 7.63513 8.30701C7.60955 8.24588 7.57208 8.19044 7.5249 8.14392C7.47771 8.0974 7.42175 8.06072 7.36027 8.03601C7.29879 8.0113 7.233 7.99906 7.16675 8H3.16675Z"
				fill="black"
			/>
		</svg>

		<svg id="settings" width="14" height="14" viewBox="0 0 14 14" fill="none" xmlns="http://www.w3.org/2000/svg">
			<path
				d="M7.00005 0.333344C6.47442 0.333344 5.9676 0.39982 5.48377 0.51238C5.38288 0.535929 5.29179 0.590234 5.2231 0.667791C5.15441 0.745347 5.1115 0.842325 5.10031 0.945323L4.99419 1.91277C4.95948 2.2298 4.77635 2.51029 4.50005 2.66993C4.2243 2.82925 3.88959 2.8469 3.59771 2.71876H3.59705L2.70838 2.32748C2.61359 2.28577 2.50819 2.27452 2.40673 2.29527C2.30528 2.31603 2.21276 2.36778 2.14198 2.44337C1.45114 3.17987 0.920943 4.0717 0.619841 5.06707C0.589848 5.16614 0.591338 5.27207 0.624106 5.37026C0.656874 5.46845 0.719304 5.55404 0.802783 5.61524L1.59119 6.19337C1.84865 6.38265 2.00005 6.68094 2.00005 7.00001C2.00005 7.31925 1.84865 7.61779 1.59119 7.80665L0.802783 8.38412C0.719304 8.44533 0.656874 8.53092 0.624106 8.62911C0.591338 8.7273 0.589848 8.83323 0.619841 8.9323C0.920911 9.92757 1.45069 10.82 2.14198 11.5567C2.21284 11.6321 2.30539 11.6838 2.40684 11.7044C2.5083 11.725 2.61366 11.7137 2.70838 11.6719L3.59705 11.2806C3.88908 11.1522 4.22411 11.1707 4.50005 11.3301C4.77635 11.4897 4.95948 11.7702 4.99419 12.0872L5.10031 13.0547C5.11159 13.1575 5.15446 13.2543 5.22301 13.3317C5.29157 13.4091 5.38245 13.4634 5.48312 13.487C5.96717 13.6 6.47442 13.6667 7.00005 13.6667C7.52568 13.6667 8.03249 13.6002 8.51632 13.4876C8.61722 13.4641 8.7083 13.4098 8.777 13.3322C8.84569 13.2547 8.8886 13.1577 8.89979 13.0547L9.00591 12.0872C9.04061 11.7702 9.22375 11.4897 9.50005 11.3301C9.7758 11.1708 10.1105 11.1525 10.4024 11.2806L11.2917 11.6719C11.3864 11.7137 11.4918 11.725 11.5933 11.7044C11.6947 11.6838 11.7873 11.6321 11.8581 11.5567C12.549 10.8201 13.0792 9.92767 13.3803 8.9323C13.4103 8.83323 13.4088 8.7273 13.376 8.62911C13.3432 8.53092 13.2808 8.44533 13.1973 8.38412L12.4089 7.80665C12.1514 7.61779 12 7.31925 12 7.00001C12 6.68077 12.1514 6.38223 12.4089 6.19337L13.1973 5.6159C13.2808 5.5547 13.3432 5.4691 13.376 5.37091C13.4088 5.27272 13.4103 5.16679 13.3803 5.06772C13.0792 4.07235 12.549 3.17987 11.8581 2.44337C11.7873 2.36789 11.6947 2.31627 11.5933 2.29563C11.4918 2.27498 11.3864 2.28634 11.2917 2.32814L10.4024 2.71941C10.1105 2.84755 9.7758 2.82925 9.50005 2.66993C9.22375 2.51029 9.04061 2.2298 9.00591 1.91277L8.89979 0.945323C8.88851 0.842528 8.84564 0.745758 8.77708 0.668338C8.70853 0.590919 8.61765 0.536659 8.51698 0.513031C8.03293 0.400062 7.52568 0.333344 7.00005 0.333344ZM7.00005 1.33334C7.32482 1.33334 7.63669 1.39164 7.94927 1.44662L8.01177 2.02149C8.08106 2.65447 8.44902 3.21746 9.00005 3.53582C9.55144 3.85439 10.2227 3.89101 10.8054 3.63478L11.334 3.40235C11.74 3.88981 12.0614 4.4404 12.2859 5.04363L11.8171 5.38738C11.3039 5.76385 11 6.36325 11 7.00001C11 7.63677 11.3039 8.23617 11.8171 8.61264L12.2859 8.95639C12.0614 9.55962 11.74 10.1102 11.334 10.5977L10.8054 10.3652C10.2227 10.109 9.55144 10.1456 9.00005 10.4642C8.44902 10.7826 8.08106 11.3456 8.01177 11.9785L7.94927 12.5534C7.63672 12.6082 7.32466 12.6667 7.00005 12.6667C6.67528 12.6667 6.36341 12.6084 6.05083 12.5534L5.98833 11.9785C5.91904 11.3456 5.55108 10.7826 5.00005 10.4642C4.44866 10.1456 3.77735 10.109 3.19471 10.3652L2.66606 10.5977C2.26004 10.1103 1.9387 9.55966 1.71424 8.95639L2.18299 8.61264C2.6962 8.23617 3.00005 7.63677 3.00005 7.00001C3.00005 6.36325 2.69596 5.76346 2.18299 5.38673L1.71424 5.04298C1.93883 4.43952 2.26053 3.88929 2.66672 3.4017L3.19471 3.63412C3.77735 3.89036 4.44866 3.85439 5.00005 3.53582C5.55108 3.21746 5.91904 2.65447 5.98833 2.02149L6.05083 1.44662C6.36338 1.39179 6.67544 1.33334 7.00005 1.33334ZM7.00005 4.33334C5.53321 4.33334 4.33338 5.53317 4.33338 7.00001C4.33338 8.46685 5.53321 9.66668 7.00005 9.66668C8.46689 9.66668 9.66672 8.46685 9.66672 7.00001C9.66672 5.53317 8.46689 4.33334 7.00005 4.33334ZM7.00005 5.33334C7.92645 5.33334 8.66672 6.07361 8.66672 7.00001C8.66672 7.92641 7.92645 8.66668 7.00005 8.66668C6.07365 8.66668 5.33338 7.92641 5.33338 7.00001C5.33338 6.07361 6.07365 5.33334 7.00005 5.33334Z"
				fill="black"
			/>
		</svg>

		<svg id="user" width="175" height="191" viewBox="0 0 175 191" fill="none" xmlns="http://www.w3.org/2000/svg">
			<g clip-path="url(#clip0)">
				<path
					d="M93.6876 20.0594C99.796 36.3923 119.787 33.9344 133.352 30.4458C136.605 29.5737 139.937 28.6222 142.872 26.9572C145.807 25.2922 148.266 22.5965 149.218 19.3458C150.249 15.6986 149.059 11.655 146.997 8.4836C145.093 5.55002 142.316 2.45786 139.381 0.554999C138.112 3.80573 133.59 4.04358 130.496 4.04358C126.133 4.04358 122.167 2.37858 118.121 1.18929C113.996 -3.39746e-06 109.553 -0.237861 105.428 0.872143C97.0988 2.85429 90.4351 11.3379 93.6876 20.0594Z"
					fill="#23286B"
				/>
				<path
					d="M106.142 129.395C105.904 129.395 105.825 129.395 105.666 129.474L106.142 129.395Z"
					fill="#23286B"
				/>
				<path
					d="M106.142 129.395C105.904 129.395 105.825 129.395 105.666 129.474L106.142 129.395Z"
					fill="#23286B"
				/>
				<path
					d="M88.5312 49.8708V34.5686C88.5312 21.5657 100.669 10.9414 115.503 10.9414C122.881 10.9414 129.624 13.5578 134.542 17.8393C139.461 22.1207 142.475 27.9879 142.475 34.4894V49.7916"
					stroke="#23286B"
					stroke-width="2"
					stroke-miterlimit="10"
				/>
				<path
					d="M142.475 66.4417V84.1224C142.475 97.1253 130.338 107.75 115.503 107.75C100.669 107.75 88.5312 97.1253 88.5312 84.1224V66.4417"
					stroke="#23286B"
					stroke-width="2"
					stroke-miterlimit="10"
				/>
				<path
					d="M99.4787 71.9125C107.058 71.9125 113.203 65.7714 113.203 58.196C113.203 50.6206 107.058 44.4795 99.4787 44.4795C91.8992 44.4795 85.7548 50.6206 85.7548 58.196C85.7548 65.7714 91.8992 71.9125 99.4787 71.9125Z"
					stroke="#23286B"
					stroke-width="2"
					stroke-miterlimit="10"
				/>
				<path
					d="M131.448 71.9125C139.028 71.9125 145.172 65.7714 145.172 58.196C145.172 50.6206 139.028 44.4795 131.448 44.4795C123.869 44.4795 117.724 50.6206 117.724 58.196C117.724 65.7714 123.869 71.9125 131.448 71.9125Z"
					stroke="#23286B"
					stroke-width="2"
					stroke-miterlimit="10"
				/>
				<path d="M113.123 57.7996H117.883" stroke="#23286B" stroke-width="4" stroke-miterlimit="10" />
				<path d="M126.53 105.609H126.609V130.425" stroke="#23286B" stroke-width="2" stroke-miterlimit="10" />
				<path d="M106.777 130.108V106.243" stroke="#23286B" stroke-width="2" stroke-miterlimit="10" />
				<path
					d="M99.4787 61.3673C101.231 61.3673 102.652 59.9474 102.652 58.1959C102.652 56.4443 101.231 55.0244 99.4787 55.0244C97.7262 55.0244 96.3055 56.4443 96.3055 58.1959C96.3055 59.9474 97.7262 61.3673 99.4787 61.3673Z"
					fill="#23286B"
				/>
				<path
					d="M131.448 61.3673C133.201 61.3673 134.621 59.9474 134.621 58.1959C134.621 56.4443 133.201 55.0244 131.448 55.0244C129.696 55.0244 128.275 56.4443 128.275 58.1959C128.275 59.9474 129.696 61.3673 131.448 61.3673Z"
					fill="#23286B"
				/>
				<path
					d="M86.7067 63.3496H85.1201C83.3749 63.3496 81.7883 64.0632 80.5984 65.1732C79.4878 66.3625 78.7738 67.9482 78.7738 69.6925C78.7738 73.1811 81.6297 76.0354 85.1201 76.0354H88.2933"
					stroke="#23286B"
					stroke-width="2"
					stroke-miterlimit="10"
				/>
				<path
					d="M144.22 63.3496H145.807C149.297 63.3496 152.153 66.2039 152.153 69.6925C152.153 71.4368 151.439 73.0225 150.249 74.2118C149.139 75.3218 147.552 76.0354 145.807 76.0354H142.634"
					stroke="#23286B"
					stroke-width="2"
					stroke-miterlimit="10"
				/>
				<path
					d="M88.3726 67.7896V71.5953H85.8341C84.8028 71.5953 83.9302 70.7231 83.9302 69.6924C83.9302 69.1374 84.1682 68.6617 84.4855 68.3446C84.8028 68.0274 85.2788 67.7896 85.8341 67.7896H88.3726Z"
					fill="#23286B"
				/>
				<path
					d="M142.634 71.5953V67.7896H145.172C146.203 67.7896 147.076 68.6617 147.076 69.6924C147.076 70.2474 146.838 70.7231 146.521 71.0403C146.203 71.3574 145.728 71.5953 145.172 71.5953H142.634Z"
					fill="#23286B"
				/>
				<path
					d="M115.503 71.2781C115.503 71.2781 111.537 77.621 117.883 76.0352"
					stroke="#23286B"
					stroke-width="2"
					stroke-miterlimit="10"
					stroke-linecap="round"
				/>
				<path
					d="M108.364 89.5933C108.364 89.5933 114.71 97.4426 123.436 89.5933"
					stroke="#23286B"
					stroke-width="2"
					stroke-miterlimit="10"
					stroke-linecap="round"
				/>
				<path
					d="M93.291 41.9423C93.291 41.9423 97.6541 37.5816 105.19 41.1495"
					stroke="#23286B"
					stroke-width="3"
					stroke-miterlimit="10"
					stroke-linecap="round"
				/>
				<path
					d="M137.715 41.9423C137.715 41.9423 133.352 37.5816 125.816 41.1495"
					stroke="#23286B"
					stroke-width="3"
					stroke-miterlimit="10"
					stroke-linecap="round"
				/>
				<path
					d="M88.3726 32.9037C88.3726 32.9037 77.4251 24.4201 82.1849 14.1129C86.9446 3.80569 102.017 9.35571 102.017 9.35571C102.017 9.35571 108.046 35.0444 88.3726 32.9037Z"
					fill="#23286B"
				/>
				<path
					d="M33.9528 96.2538C33.0009 93.1617 31.6523 91.6552 30.9383 87.1359C29.4311 78.0973 29.9864 69.4551 26.2579 69.7723C24.7506 69.9308 24.2747 71.5166 24.354 72.3887L25.5439 86.6602C25.068 88.3252 24.1953 87.6909 24.1953 87.6909C24.1953 87.6909 21.1015 75.0052 20.7049 72.7059C20.3082 70.4858 19.1976 69.2173 17.6904 69.3758C15.0725 69.6137 16.1038 72.7851 16.3418 73.9744L19.1183 89.3559C19.3563 90.8624 17.7697 90.3866 17.7697 90.3866L11.582 75.0052C10.8681 73.3401 9.51946 73.7366 9.51946 73.7366C7.06026 74.2916 8.01221 76.5116 8.01221 76.5116L13.3273 92.8445C13.3273 92.9238 13.3273 93.0031 13.3273 93.0824C13.4066 93.9545 12.296 94.4302 11.82 93.6374C10.1541 91.1002 6.9016 87.0566 4.20441 85.4709C2.85581 84.6781 1.90387 84.8366 1.34856 85.2331C0.793258 85.6295 0.713929 86.3431 1.11057 86.8981L11.0267 101.249C13.3273 116.472 22.6088 118.295 22.6088 118.295L28.1618 140.02L36.3327 174.271L37.364 178.632C38.3159 182.834 42.1237 185.847 46.4075 185.847H50.7706C53.8644 185.847 56.0063 182.834 55.0544 179.98L35.3014 119.881L34.4288 114.648C36.3327 112.507 37.602 107.988 38.2366 104.737C38.6332 102.993 38.7919 101.17 38.6332 99.4252C38.3159 95.0645 41.2511 87.2152 41.2511 87.2152C41.0131 85.7088 38.1573 86.9773 38.1573 86.9773C34.9841 88.0873 34.1908 93.1617 33.9528 95.9367C33.8735 97.126 33.3182 98.1567 32.5249 98.9495C27.7652 103.627 27.3685 108.86 27.3685 108.86"
					stroke="#23286B"
					stroke-width="2"
					stroke-miterlimit="10"
				/>
				<path
					d="M20.6255 72.7845C20.2289 70.5645 19.5149 68.8995 17.611 69.4545C15.0725 70.1681 16.0244 72.8638 16.2624 74.0531"
					stroke="#23286B"
					stroke-width="2"
					stroke-miterlimit="10"
				/>
				<path
					d="M175 190.207V191H157.706L154.057 170.782V191H79.1704V179.504C79.1704 176.729 79.1704 173.954 79.2498 171.179C77.5839 172.526 75.7593 173.636 73.6174 174.826L57.0376 185.926C56.9583 186.005 56.879 186.005 56.7996 186.084C56.0857 186.481 55.2924 186.719 54.4198 186.719L50.9719 186.849C50.9719 186.849 54.6578 185.45 55.5304 181.961L49.5807 162.14C58.0689 155.083 71.7928 134.707 98.1301 130.505C99.2407 130.267 100.431 130.029 101.7 129.87C102.89 129.712 104.08 129.553 105.428 129.474L106.301 129.395V129.553L105.825 129.633C105.984 129.633 106.063 129.633 106.222 129.553H106.301C106.46 129.553 106.618 129.553 106.777 129.474H106.856L107.65 129.395V132.408C107.65 132.804 107.808 133.28 108.205 133.676C109.395 135.024 112.092 136.055 115.345 136.293C115.9 136.372 116.455 136.372 117.01 136.372C117.09 136.372 117.169 136.372 117.169 136.372H117.248C120.422 136.293 123.357 135.421 124.864 134.152C125.34 133.756 125.816 133.201 125.816 132.408V129.633L126.609 129.791H126.768C127.006 129.791 127.165 129.87 127.403 129.87V129.633L128.434 129.791C157.548 133.359 175 155.956 175 190.207Z"
					fill="#23286B"
				/>
				<path
					d="M56.9583 185.846L56.7203 186.005C56.7997 186.005 56.879 185.926 56.9583 185.846Z"
					fill="#23286B"
				/>
			</g>
			<defs>
				<clipPath id="clip0">
					<rect width="175" height="191" fill="white" />
				</clipPath>
			</defs>
		</svg>
	</defs>
</svg>
