<svg>
	<defs>
		<svg id="home" width="16" height="16" viewBox="0 0 16 16" fill="none" xmlns="http://www.w3.org/2000/svg">
			<path
				d="M3.5 2C2.6775 2 2 2.6775 2 3.5V4.5C2 5.3225 2.6775 6 3.5 6H6.16667C6.98917 6 7.66667 5.3225 7.66667 4.5V3.5C7.66667 2.6775 6.98917 2 6.16667 2H3.5ZM9.83333 2C9.01083 2 8.33333 2.6775 8.33333 3.5V7.83333C8.33333 8.65583 9.01083 9.33333 9.83333 9.33333H12.5C13.3225 9.33333 14 8.65583 14 7.83333V3.5C14 2.6775 13.3225 2 12.5 2H9.83333ZM3.5 3H6.16667C6.44883 3 6.66667 3.21783 6.66667 3.5V4.5C6.66667 4.78217 6.44883 5 6.16667 5H3.5C3.21783 5 3 4.78217 3 4.5V3.5C3 3.21783 3.21783 3 3.5 3ZM9.83333 3H12.5C12.7822 3 13 3.21783 13 3.5V7.83333C13 8.1155 12.7822 8.33333 12.5 8.33333H9.83333C9.55117 8.33333 9.33333 8.1155 9.33333 7.83333V3.5C9.33333 3.21783 9.55117 3 9.83333 3ZM3.5 6.66667C2.6775 6.66667 2 7.34417 2 8.16667V12.5C2 13.3225 2.6775 14 3.5 14H6.16667C6.98917 14 7.66667 13.3225 7.66667 12.5V8.16667C7.66667 7.34417 6.98917 6.66667 6.16667 6.66667H3.5ZM3.5 7.66667H6.16667C6.44883 7.66667 6.66667 7.8845 6.66667 8.16667V12.5C6.66667 12.7822 6.44883 13 6.16667 13H3.5C3.21783 13 3 12.7822 3 12.5V8.16667C3 7.8845 3.21783 7.66667 3.5 7.66667ZM9.83333 10C9.01083 10 8.33333 10.6775 8.33333 11.5V12.5C8.33333 13.3225 9.01083 14 9.83333 14H12.5C13.3225 14 14 13.3225 14 12.5V11.5C14 10.6775 13.3225 10 12.5 10H9.83333ZM9.83333 11H12.5C12.7822 11 13 11.2178 13 11.5V12.5C13 12.7822 12.7822 13 12.5 13H9.83333C9.55117 13 9.33333 12.7822 9.33333 12.5V11.5C9.33333 11.2178 9.55117 11 9.83333 11Z"
				fill="white"
			/>
		</svg>

		<svg id="time" width="17" height="17" viewBox="0 0 17 17" fill="none" xmlns="http://www.w3.org/2000/svg">
			<path
				d="M8.04395 0.634033C3.63257 0.634033 0.0439453 4.22266 0.0439453 8.63403C0.0439453 13.0454 3.63257 16.634 8.04395 16.634C12.4553 16.634 16.0439 13.0454 16.0439 8.63403C16.0439 4.22266 12.4553 0.634033 8.04395 0.634033ZM11.8486 12.772C11.7186 12.902 11.548 12.9674 11.3773 12.9674C11.2067 12.9674 11.0359 12.902 10.906 12.772L7.57263 9.43872C7.44727 9.31409 7.37732 9.14465 7.37732 8.96741V4.63403C7.37732 4.26538 7.6759 3.96741 8.04395 3.96741C8.41199 3.96741 8.71057 4.26538 8.71057 4.63403V8.69141L11.8486 11.8293C12.1093 12.0901 12.1093 12.5114 11.8486 12.772Z"
				fill="#23286B"
			/>
		</svg>

		<svg id="drop-icon" width="24" height="25" viewBox="0 0 24 25" fill="none" xmlns="http://www.w3.org/2000/svg">
			<path
				d="M18.7069 8.70709C18.5194 8.51962 18.2651 8.41431 17.9999 8.41431C17.7348 8.41431 17.4804 8.51962 17.2929 8.70709L12.7069 13.2931C12.5168 13.4756 12.2635 13.5775 11.9999 13.5775C11.7364 13.5775 11.4831 13.4756 11.2929 13.2931L6.70692 8.70709C6.51832 8.52493 6.26571 8.42414 6.00352 8.42642C5.74132 8.4287 5.49051 8.53387 5.3051 8.71927C5.11969 8.90468 5.01452 9.15549 5.01224 9.41769C5.00997 9.67989 5.11076 9.93249 5.29292 10.1211L9.87792 14.7071C10.1565 14.9857 10.4872 15.2067 10.8513 15.3575C11.2153 15.5083 11.6054 15.586 11.9994 15.586C12.3934 15.586 12.7836 15.5083 13.1476 15.3575C13.5116 15.2067 13.8423 14.9857 14.1209 14.7071L18.7069 10.1211C18.8944 9.93357 18.9997 9.67926 18.9997 9.41409C18.9997 9.14893 18.8944 8.89462 18.7069 8.70709Z"
				fill="#DDDFEE"
			/>
		</svg>

		<svg
			id="dashboard"
			width="24"
			height="24"
			viewBox="0 0 24 24"
			fill="currentColor"
			xmlns="http://www.w3.org/2000/svg"
			color="currentColor"
		>
			<g clip-path="url(#clip0)">
				<path
					d="M7 0H4C2.93913 0 1.92172 0.421427 1.17157 1.17157C0.421427 1.92172 0 2.93913 0 4L0 7C0 8.06087 0.421427 9.07828 1.17157 9.82843C1.92172 10.5786 2.93913 11 4 11H7C8.06087 11 9.07828 10.5786 9.82843 9.82843C10.5786 9.07828 11 8.06087 11 7V4C11 2.93913 10.5786 1.92172 9.82843 1.17157C9.07828 0.421427 8.06087 0 7 0V0ZM9 7C9 7.53043 8.78929 8.03914 8.41421 8.41421C8.03914 8.78929 7.53043 9 7 9H4C3.46957 9 2.96086 8.78929 2.58579 8.41421C2.21071 8.03914 2 7.53043 2 7V4C2 3.46957 2.21071 2.96086 2.58579 2.58579C2.96086 2.21071 3.46957 2 4 2H7C7.53043 2 8.03914 2.21071 8.41421 2.58579C8.78929 2.96086 9 3.46957 9 4V7Z"
					fill="currentColor"
				/>
				<path
					d="M20 0H17C15.9391 0 14.9217 0.421427 14.1716 1.17157C13.4214 1.92172 13 2.93913 13 4V7C13 8.06087 13.4214 9.07828 14.1716 9.82843C14.9217 10.5786 15.9391 11 17 11H20C21.0609 11 22.0783 10.5786 22.8284 9.82843C23.5786 9.07828 24 8.06087 24 7V4C24 2.93913 23.5786 1.92172 22.8284 1.17157C22.0783 0.421427 21.0609 0 20 0V0ZM22 7C22 7.53043 21.7893 8.03914 21.4142 8.41421C21.0391 8.78929 20.5304 9 20 9H17C16.4696 9 15.9609 8.78929 15.5858 8.41421C15.2107 8.03914 15 7.53043 15 7V4C15 3.46957 15.2107 2.96086 15.5858 2.58579C15.9609 2.21071 16.4696 2 17 2H20C20.5304 2 21.0391 2.21071 21.4142 2.58579C21.7893 2.96086 22 3.46957 22 4V7Z"
					fill="currentColor"
				/>
				<path
					d="M7 13H4C2.93913 13 1.92172 13.4214 1.17157 14.1716C0.421427 14.9217 0 15.9391 0 17L0 20C0 21.0609 0.421427 22.0783 1.17157 22.8284C1.92172 23.5786 2.93913 24 4 24H7C8.06087 24 9.07828 23.5786 9.82843 22.8284C10.5786 22.0783 11 21.0609 11 20V17C11 15.9391 10.5786 14.9217 9.82843 14.1716C9.07828 13.4214 8.06087 13 7 13ZM9 20C9 20.5304 8.78929 21.0391 8.41421 21.4142C8.03914 21.7893 7.53043 22 7 22H4C3.46957 22 2.96086 21.7893 2.58579 21.4142C2.21071 21.0391 2 20.5304 2 20V17C2 16.4696 2.21071 15.9609 2.58579 15.5858C2.96086 15.2107 3.46957 15 4 15H7C7.53043 15 8.03914 15.2107 8.41421 15.5858C8.78929 15.9609 9 16.4696 9 17V20Z"
					fill="currentColor"
				/>
				<path
					d="M20 13H17C15.9391 13 14.9217 13.4214 14.1716 14.1716C13.4214 14.9217 13 15.9391 13 17V20C13 21.0609 13.4214 22.0783 14.1716 22.8284C14.9217 23.5786 15.9391 24 17 24H20C21.0609 24 22.0783 23.5786 22.8284 22.8284C23.5786 22.0783 24 21.0609 24 20V17C24 15.9391 23.5786 14.9217 22.8284 14.1716C22.0783 13.4214 21.0609 13 20 13ZM22 20C22 20.5304 21.7893 21.0391 21.4142 21.4142C21.0391 21.7893 20.5304 22 20 22H17C16.4696 22 15.9609 21.7893 15.5858 21.4142C15.2107 21.0391 15 20.5304 15 20V17C15 16.4696 15.2107 15.9609 15.5858 15.5858C15.9609 15.2107 16.4696 15 17 15H20C20.5304 15 21.0391 15.2107 21.4142 15.5858C21.7893 15.9609 22 16.4696 22 17V20Z"
					fill="currentColor"
				/>
			</g>
			<defs>
				<clipPath id="clip0">
					<rect width="24" height="24" fill="white" />
				</clipPath>
			</defs>
		</svg>

		<svg id="academy" width="24" height="24" viewBox="0 0 24 24" fill="none" xmlns="http://www.w3.org/2000/svg">
			<g clip-path="url(#clip0)">
				<path
					d="M19 6.00007H14.321C13.9224 5.71598 13.4744 5.50846 13 5.38807V5.00007L16.53 3.34807C16.6747 3.25838 16.7941 3.13324 16.8769 2.98449C16.9598 2.83574 17.0032 2.66831 17.0032 2.49807C17.0032 2.32782 16.9598 2.16039 16.8769 2.01164C16.7941 1.86289 16.6747 1.73775 16.53 1.64807L13.33 0.148067C13.0802 0.0313185 12.8049 -0.0204169 12.5297 -0.00233746C12.2545 0.015742 11.9883 0.10305 11.7559 0.251483C11.5235 0.399916 11.3323 0.604662 11.2002 0.846717C11.068 1.08877 10.9992 1.36029 11 1.63607V5.38807C10.5258 5.50829 10.0782 5.71583 9.68 6.00007H5C3.67441 6.00165 2.40356 6.52895 1.46622 7.46629C0.528882 8.40362 0.00158786 9.67447 0 11.0001L0 21.0001C0 21.7957 0.31607 22.5588 0.87868 23.1214C1.44129 23.684 2.20435 24.0001 3 24.0001H21C21.7956 24.0001 22.5587 23.684 23.1213 23.1214C23.6839 22.5588 24 21.7957 24 21.0001V11.0001C23.9984 9.67447 23.4711 8.40362 22.5338 7.46629C21.5964 6.52895 20.3256 6.00165 19 6.00007ZM21.816 10.0001H19.657C18.8618 9.99804 18.0995 9.68214 17.536 9.12107L16.414 8.00007H19C19.6183 8.00263 20.2206 8.19615 20.7247 8.55415C21.2288 8.91216 21.6099 9.41716 21.816 10.0001ZM5 8.00007H7.586L6.464 9.12107C5.90047 9.68214 5.13821 9.99804 4.343 10.0001H2.184C2.39008 9.41716 2.77123 8.91216 3.2753 8.55415C3.77937 8.19615 4.38174 8.00263 5 8.00007ZM13 22.0001H11V19.0001C11 18.7348 11.1054 18.4805 11.2929 18.293C11.4804 18.1054 11.7348 18.0001 12 18.0001C12.2652 18.0001 12.5196 18.1054 12.7071 18.293C12.8946 18.4805 13 18.7348 13 19.0001V22.0001ZM21 22.0001H15V19.0001C15 18.2044 14.6839 17.4414 14.1213 16.8787C13.5587 16.3161 12.7956 16.0001 12 16.0001C11.2044 16.0001 10.4413 16.3161 9.87868 16.8787C9.31607 17.4414 9 18.2044 9 19.0001V22.0001H3C2.73478 22.0001 2.48043 21.8947 2.29289 21.7072C2.10536 21.5196 2 21.2653 2 21.0001V12.0001H4.343C4.99982 12.0017 5.65043 11.873 6.25721 11.6216C6.86398 11.3701 7.41487 11.0008 7.878 10.5351L10.586 7.82807C10.9611 7.45312 11.4697 7.24249 12 7.24249C12.5303 7.24249 13.0389 7.45312 13.414 7.82807L16.122 10.5351C16.5851 11.0008 17.136 11.3701 17.7428 11.6216C18.3496 11.873 19.0002 12.0017 19.657 12.0001H22V21.0001C22 21.2653 21.8946 21.5196 21.7071 21.7072C21.5196 21.8947 21.2652 22.0001 21 22.0001ZM7 15.0001C7 15.2653 6.89464 15.5196 6.70711 15.7072C6.51957 15.8947 6.26522 16.0001 6 16.0001H5C4.73478 16.0001 4.48043 15.8947 4.29289 15.7072C4.10536 15.5196 4 15.2653 4 15.0001C4 14.7348 4.10536 14.4805 4.29289 14.293C4.48043 14.1054 4.73478 14.0001 5 14.0001H6C6.26522 14.0001 6.51957 14.1054 6.70711 14.293C6.89464 14.4805 7 14.7348 7 15.0001ZM7 19.0001C7 19.2653 6.89464 19.5196 6.70711 19.7072C6.51957 19.8947 6.26522 20.0001 6 20.0001H5C4.73478 20.0001 4.48043 19.8947 4.29289 19.7072C4.10536 19.5196 4 19.2653 4 19.0001C4 18.7348 4.10536 18.4805 4.29289 18.293C4.48043 18.1054 4.73478 18.0001 5 18.0001H6C6.26522 18.0001 6.51957 18.1054 6.70711 18.293C6.89464 18.4805 7 18.7348 7 19.0001ZM20 15.0001C20 15.2653 19.8946 15.5196 19.7071 15.7072C19.5196 15.8947 19.2652 16.0001 19 16.0001H18C17.7348 16.0001 17.4804 15.8947 17.2929 15.7072C17.1054 15.5196 17 15.2653 17 15.0001C17 14.7348 17.1054 14.4805 17.2929 14.293C17.4804 14.1054 17.7348 14.0001 18 14.0001H19C19.2652 14.0001 19.5196 14.1054 19.7071 14.293C19.8946 14.4805 20 14.7348 20 15.0001ZM20 19.0001C20 19.2653 19.8946 19.5196 19.7071 19.7072C19.5196 19.8947 19.2652 20.0001 19 20.0001H18C17.7348 20.0001 17.4804 19.8947 17.2929 19.7072C17.1054 19.5196 17 19.2653 17 19.0001C17 18.7348 17.1054 18.4805 17.2929 18.293C17.4804 18.1054 17.7348 18.0001 18 18.0001H19C19.2652 18.0001 19.5196 18.1054 19.7071 18.293C19.8946 18.4805 20 18.7348 20 19.0001ZM14 12.0001C14 12.3956 13.8827 12.7823 13.6629 13.1112C13.4432 13.4401 13.1308 13.6965 12.7654 13.8478C12.3999 13.9992 11.9978 14.0388 11.6098 13.9616C11.2219 13.8845 10.8655 13.694 10.5858 13.4143C10.3061 13.1346 10.1156 12.7782 10.0384 12.3902C9.96126 12.0023 10.0009 11.6002 10.1522 11.2347C10.3036 10.8692 10.56 10.5569 10.8889 10.3371C11.2178 10.1174 11.6044 10.0001 12 10.0001C12.5304 10.0001 13.0391 10.2108 13.4142 10.5859C13.7893 10.9609 14 11.4696 14 12.0001Z"
					fill="#DDDFEE"
				/>
			</g>
			<defs>
				<clipPath id="clip0">
					<rect width="24" height="24" fill="white" />
				</clipPath>
			</defs>
		</svg>

		<svg id="courses" width="24" height="24" viewBox="0 0 24 24" fill="none" xmlns="http://www.w3.org/2000/svg">
			<path
				d="M23.8749 7.54298C23.5959 6.56328 22.943 5.73252 22.0569 5.22998L14.6829 1.71698C13.8857 1.24081 12.9761 0.985638 12.0475 0.977729C11.119 0.969819 10.2051 1.20946 9.39991 1.67198L1.94291 5.22998C1.91491 5.24398 1.88591 5.25899 1.85891 5.27498C1.28711 5.60193 0.813209 6.07593 0.486391 6.64781C0.159573 7.21968 -0.00825816 7.8686 0.000312565 8.52722C0.00888329 9.18584 0.193543 9.83016 0.535132 10.3933C0.876721 10.9565 1.36279 11.418 1.94291 11.73L3.99991 12.71V17.61C4.0005 18.6775 4.34227 19.7169 4.97534 20.5765C5.6084 21.436 6.49962 22.0707 7.51891 22.388C8.97479 22.8092 10.4844 23.0153 11.9999 23C13.5152 23.017 15.0248 22.8125 16.4809 22.393C17.5002 22.0757 18.3914 21.441 19.0245 20.5815C19.6575 19.7219 19.9993 18.6825 19.9999 17.615V12.708L21.9999 11.752V20C21.9999 20.2652 22.1053 20.5196 22.2928 20.7071C22.4803 20.8946 22.7347 21 22.9999 21C23.2651 21 23.5195 20.8946 23.707 20.7071C23.8946 20.5196 23.9999 20.2652 23.9999 20V7.99998C23.9967 7.83966 23.9537 7.68264 23.8749 7.54298ZM17.9999 17.615C18.0002 18.2536 17.7966 18.8756 17.4189 19.3905C17.0412 19.9054 16.5091 20.2864 15.8999 20.478C14.6321 20.8402 13.3183 21.0161 11.9999 21C10.6815 21.0161 9.36771 20.8402 8.09991 20.478C7.49073 20.2864 6.95858 19.9054 6.58088 19.3905C6.20319 18.8756 5.99966 18.2536 5.99991 17.615V13.663L9.31691 15.243C10.1353 15.729 11.0701 15.9844 12.0219 15.982C12.9279 15.9884 13.8187 15.7485 14.5989 15.288L17.9999 13.663V17.615ZM21.1999 9.92498L13.6579 13.525C13.1418 13.8255 12.5538 13.98 11.9567 13.9721C11.3596 13.9642 10.7758 13.7941 10.2679 13.48L2.88891 9.96999C2.62331 9.82676 2.40084 9.61512 2.24456 9.35698C2.08829 9.09884 2.00389 8.80361 2.00011 8.50187C1.99634 8.20014 2.07333 7.90288 2.2231 7.64092C2.37287 7.37895 2.58997 7.16181 2.85191 7.01198L10.3469 3.43198C10.8632 3.13212 11.4511 2.97794 12.0481 2.98586C12.6451 2.99379 13.2288 3.16352 13.7369 3.47698L21.1109 6.98998C21.3773 7.13791 21.5998 7.35365 21.756 7.61532C21.9121 7.87699 21.9963 8.1753 21.9999 8.47998C22.0004 8.76898 21.9272 9.05333 21.7872 9.30617C21.6472 9.55901 21.4451 9.77199 21.1999 9.92498Z"
				fill="currentColor"
			/>
		</svg>

		<svg id="assessments" width="24" height="24" viewBox="0 0 24 24" fill="none" xmlns="http://www.w3.org/2000/svg">
			<path
				d="M11 12C11.2652 12 11.5196 12.1054 11.7071 12.2929C11.8946 12.4804 12 12.7348 12 13C12 13.2652 11.8946 13.5196 11.7071 13.7071C11.5196 13.8946 11.2652 14 11 14H8C7.73478 14 7.48043 13.8946 7.29289 13.7071C7.10536 13.5196 7 13.2652 7 13C7 12.7348 7.10536 12.4804 7.29289 12.2929C7.48043 12.1054 7.73478 12 8 12H11ZM17 9C17 8.73478 16.8946 8.48043 16.7071 8.29289C16.5196 8.10536 16.2652 8 16 8H8C7.73478 8 7.48043 8.10536 7.29289 8.29289C7.10536 8.48043 7 8.73478 7 9C7 9.26522 7.10536 9.51957 7.29289 9.70711C7.48043 9.89464 7.73478 10 8 10H16C16.2652 10 16.5196 9.89464 16.7071 9.70711C16.8946 9.51957 17 9.26522 17 9ZM8 6H16C16.2652 6 16.5196 5.89464 16.7071 5.70711C16.8946 5.51957 17 5.26522 17 5C17 4.73478 16.8946 4.48043 16.7071 4.29289C16.5196 4.10536 16.2652 4 16 4H8C7.73478 4 7.48043 4.10536 7.29289 4.29289C7.10536 4.48043 7 4.73478 7 5C7 5.26522 7.10536 5.51957 7.29289 5.70711C7.48043 5.89464 7.73478 6 8 6ZM20 19.444V23.277C20.0001 23.4197 19.9578 23.5591 19.8786 23.6777C19.7994 23.7964 19.6868 23.8888 19.555 23.9434C19.4232 23.998 19.2781 24.0123 19.1382 23.9845C18.9983 23.9566 18.8698 23.8879 18.769 23.787L18 23.019L17.231 23.787C17.1302 23.8879 17.0017 23.9566 16.8618 23.9845C16.7219 24.0123 16.5768 23.998 16.445 23.9434C16.3132 23.8888 16.2006 23.7964 16.1214 23.6777C16.0422 23.5591 15.9999 23.4197 16 23.277V19.444C15.2373 19.0058 14.641 18.3277 14.3038 17.5154C13.9666 16.703 13.9076 15.8019 14.1358 14.9525C14.364 14.103 14.8667 13.3529 15.5656 12.8189C16.2646 12.2849 17.1204 11.997 18 12C18.338 12.0042 18.6741 12.0519 19 12.142V5C19 4.20435 18.6839 3.44129 18.1213 2.87868C17.5587 2.31607 16.7956 2 16 2H8C7.20435 2 6.44129 2.31607 5.87868 2.87868C5.31607 3.44129 5 4.20435 5 5V17C5 17.7956 5.31607 18.5587 5.87868 19.1213C6.44129 19.6839 7.20435 20 8 20H13C13.2652 20 13.5196 20.1054 13.7071 20.2929C13.8946 20.4804 14 20.7348 14 21C14 21.2652 13.8946 21.5196 13.7071 21.7071C13.5196 21.8946 13.2652 22 13 22H8C6.67441 21.9984 5.40356 21.4711 4.46622 20.5338C3.52888 19.5964 3.00159 18.3256 3 17V5C3.00159 3.67441 3.52888 2.40356 4.46622 1.46622C5.40356 0.528882 6.67441 0.00158786 8 0L16 0C17.3256 0.00158786 18.5964 0.528882 19.5338 1.46622C20.4711 2.40356 20.9984 3.67441 21 5V13.382C21.3917 13.8219 21.6801 14.3438 21.844 14.9096C22.0079 15.4753 22.0433 16.0706 21.9474 16.6518C21.8515 17.2329 21.6269 17.7853 21.2899 18.2684C20.953 18.7516 20.5122 19.1532 20 19.444ZM20 16C20 15.6044 19.8827 15.2178 19.6629 14.8889C19.4432 14.56 19.1308 14.3036 18.7654 14.1522C18.3999 14.0009 17.9978 13.9613 17.6098 14.0384C17.2219 14.1156 16.8655 14.3061 16.5858 14.5858C16.3061 14.8655 16.1156 15.2219 16.0384 15.6098C15.9613 15.9978 16.0009 16.3999 16.1522 16.7654C16.3036 17.1308 16.56 17.4432 16.8889 17.6629C17.2178 17.8827 17.6044 18 18 18C18.5304 18 19.0391 17.7893 19.4142 17.4142C19.7893 17.0391 20 16.5304 20 16Z"
				fill="currentColor"
			/>
		</svg>

		<svg id="account" width="24" height="24" viewBox="0 0 24 24" fill="none" xmlns="http://www.w3.org/2000/svg">
			<g clip-path="url(#clip0)">
				<path
					d="M1 4.75001H3.736C3.95064 5.53975 4.41917 6.23691 5.06933 6.73395C5.71948 7.23098 6.51512 7.50027 7.3335 7.50027C8.15188 7.50027 8.94752 7.23098 9.59767 6.73395C10.2478 6.23691 10.7164 5.53975 10.931 4.75001H23C23.2652 4.75001 23.5196 4.64466 23.7071 4.45712C23.8946 4.26959 24 4.01523 24 3.75001C24 3.4848 23.8946 3.23044 23.7071 3.04291C23.5196 2.85537 23.2652 2.75001 23 2.75001H10.931C10.7164 1.96028 10.2478 1.26312 9.59767 0.766084C8.94752 0.269047 8.15188 -0.000244141 7.3335 -0.000244141C6.51512 -0.000244141 5.71948 0.269047 5.06933 0.766084C4.41917 1.26312 3.95064 1.96028 3.736 2.75001H1C0.734784 2.75001 0.48043 2.85537 0.292893 3.04291C0.105357 3.23044 0 3.4848 0 3.75001C0 4.01523 0.105357 4.26959 0.292893 4.45712C0.48043 4.64466 0.734784 4.75001 1 4.75001ZM7.333 2.00001C7.67912 2.00001 8.01746 2.10265 8.30525 2.29494C8.59303 2.48724 8.81734 2.76055 8.94979 3.08032C9.08224 3.40009 9.1169 3.75196 9.04937 4.09142C8.98185 4.43089 8.81518 4.74271 8.57044 4.98745C8.3257 5.23219 8.01388 5.39887 7.67441 5.46639C7.33494 5.53391 6.98307 5.49926 6.6633 5.3668C6.34353 5.23435 6.07022 5.01005 5.87793 4.72226C5.68564 4.43448 5.583 4.09613 5.583 3.75001C5.58353 3.28605 5.76807 2.84124 6.09615 2.51316C6.42422 2.18509 6.86903 2.00054 7.333 2.00001Z"
					fill="currentColor"
				/>
				<path
					d="M23 11H20.264C20.0497 10.2101 19.5814 9.51268 18.9313 9.01544C18.2812 8.5182 17.4855 8.24878 16.667 8.24878C15.8485 8.24878 15.0528 8.5182 14.4027 9.01544C13.7526 9.51268 13.2843 10.2101 13.07 11H1C0.734784 11 0.48043 11.1054 0.292893 11.2929C0.105357 11.4804 0 11.7348 0 12C0 12.2652 0.105357 12.5196 0.292893 12.7071C0.48043 12.8947 0.734784 13 1 13H13.07C13.2843 13.7899 13.7526 14.4873 14.4027 14.9846C15.0528 15.4818 15.8485 15.7512 16.667 15.7512C17.4855 15.7512 18.2812 15.4818 18.9313 14.9846C19.5814 14.4873 20.0497 13.7899 20.264 13H23C23.2652 13 23.5196 12.8947 23.7071 12.7071C23.8946 12.5196 24 12.2652 24 12C24 11.7348 23.8946 11.4804 23.7071 11.2929C23.5196 11.1054 23.2652 11 23 11ZM16.667 13.75C16.3209 13.75 15.9825 13.6474 15.6948 13.4551C15.407 13.2628 15.1827 12.9895 15.0502 12.6697C14.9178 12.3499 14.8831 11.9981 14.9506 11.6586C15.0181 11.3191 15.1848 11.0073 15.4296 10.7626C15.6743 10.5178 15.9861 10.3512 16.3256 10.2836C16.6651 10.2161 17.0169 10.2508 17.3367 10.3832C17.6565 10.5157 17.9298 10.74 18.1221 11.0278C18.3144 11.3156 18.417 11.6539 18.417 12C18.4165 12.464 18.2319 12.9088 17.9039 13.2369C17.5758 13.5649 17.131 13.7495 16.667 13.75Z"
					fill="currentColor"
				/>
				<path
					d="M23 19.25H10.931C10.7164 18.4603 10.2478 17.7631 9.59767 17.2661C8.94752 16.769 8.15188 16.4998 7.3335 16.4998C6.51512 16.4998 5.71948 16.769 5.06933 17.2661C4.41917 17.7631 3.95064 18.4603 3.736 19.25H1C0.734784 19.25 0.48043 19.3554 0.292893 19.5429C0.105357 19.7304 0 19.9848 0 20.25C0 20.5152 0.105357 20.7696 0.292893 20.9571C0.48043 21.1447 0.734784 21.25 1 21.25H3.736C3.95064 22.0397 4.41917 22.7369 5.06933 23.2339C5.71948 23.731 6.51512 24.0003 7.3335 24.0003C8.15188 24.0003 8.94752 23.731 9.59767 23.2339C10.2478 22.7369 10.7164 22.0397 10.931 21.25H23C23.2652 21.25 23.5196 21.1447 23.7071 20.9571C23.8946 20.7696 24 20.5152 24 20.25C24 19.9848 23.8946 19.7304 23.7071 19.5429C23.5196 19.3554 23.2652 19.25 23 19.25ZM7.333 22C6.98688 22 6.64854 21.8974 6.36075 21.7051C6.07297 21.5128 5.84866 21.2395 5.71621 20.9197C5.58376 20.5999 5.5491 20.2481 5.61663 19.9086C5.68415 19.5691 5.85082 19.2573 6.09556 19.0126C6.3403 18.7678 6.65213 18.6012 6.99159 18.5336C7.33106 18.4661 7.68293 18.5008 8.0027 18.6332C8.32247 18.7657 8.59578 18.99 8.78807 19.2778C8.98036 19.5656 9.083 19.9039 9.083 20.25C9.08221 20.7139 8.89758 21.1586 8.56956 21.4866C8.24154 21.8146 7.79689 21.9992 7.333 22Z"
					fill="currentColor"
				/>
			</g>
			<defs>
				<clipPath id="clip0">
					<rect width="24" height="24" fill="currentColor" />
				</clipPath>
			</defs>
		</svg>

		<svg id="settings" width="14" height="14" viewBox="0 0 14 14" fill="none" xmlns="http://www.w3.org/2000/svg">
			<path
				d="M7.00005 0.333344C6.47442 0.333344 5.9676 0.39982 5.48377 0.51238C5.38288 0.535929 5.29179 0.590234 5.2231 0.667791C5.15441 0.745347 5.1115 0.842325 5.10031 0.945323L4.99419 1.91277C4.95948 2.2298 4.77635 2.51029 4.50005 2.66993C4.2243 2.82925 3.88959 2.8469 3.59771 2.71876H3.59705L2.70838 2.32748C2.61359 2.28577 2.50819 2.27452 2.40673 2.29527C2.30528 2.31603 2.21276 2.36778 2.14198 2.44337C1.45114 3.17987 0.920943 4.0717 0.619841 5.06707C0.589848 5.16614 0.591338 5.27207 0.624106 5.37026C0.656874 5.46845 0.719304 5.55404 0.802783 5.61524L1.59119 6.19337C1.84865 6.38265 2.00005 6.68094 2.00005 7.00001C2.00005 7.31925 1.84865 7.61779 1.59119 7.80665L0.802783 8.38412C0.719304 8.44533 0.656874 8.53092 0.624106 8.62911C0.591338 8.7273 0.589848 8.83323 0.619841 8.9323C0.920911 9.92757 1.45069 10.82 2.14198 11.5567C2.21284 11.6321 2.30539 11.6838 2.40684 11.7044C2.5083 11.725 2.61366 11.7137 2.70838 11.6719L3.59705 11.2806C3.88908 11.1522 4.22411 11.1707 4.50005 11.3301C4.77635 11.4897 4.95948 11.7702 4.99419 12.0872L5.10031 13.0547C5.11159 13.1575 5.15446 13.2543 5.22301 13.3317C5.29157 13.4091 5.38245 13.4634 5.48312 13.487C5.96717 13.6 6.47442 13.6667 7.00005 13.6667C7.52568 13.6667 8.03249 13.6002 8.51632 13.4876C8.61722 13.4641 8.7083 13.4098 8.777 13.3322C8.84569 13.2547 8.8886 13.1577 8.89979 13.0547L9.00591 12.0872C9.04061 11.7702 9.22375 11.4897 9.50005 11.3301C9.7758 11.1708 10.1105 11.1525 10.4024 11.2806L11.2917 11.6719C11.3864 11.7137 11.4918 11.725 11.5933 11.7044C11.6947 11.6838 11.7873 11.6321 11.8581 11.5567C12.549 10.8201 13.0792 9.92767 13.3803 8.9323C13.4103 8.83323 13.4088 8.7273 13.376 8.62911C13.3432 8.53092 13.2808 8.44533 13.1973 8.38412L12.4089 7.80665C12.1514 7.61779 12 7.31925 12 7.00001C12 6.68077 12.1514 6.38223 12.4089 6.19337L13.1973 5.6159C13.2808 5.5547 13.3432 5.4691 13.376 5.37091C13.4088 5.27272 13.4103 5.16679 13.3803 5.06772C13.0792 4.07235 12.549 3.17987 11.8581 2.44337C11.7873 2.36789 11.6947 2.31627 11.5933 2.29563C11.4918 2.27498 11.3864 2.28634 11.2917 2.32814L10.4024 2.71941C10.1105 2.84755 9.7758 2.82925 9.50005 2.66993C9.22375 2.51029 9.04061 2.2298 9.00591 1.91277L8.89979 0.945323C8.88851 0.842528 8.84564 0.745758 8.77708 0.668338C8.70853 0.590919 8.61765 0.536659 8.51698 0.513031C8.03293 0.400062 7.52568 0.333344 7.00005 0.333344ZM7.00005 1.33334C7.32482 1.33334 7.63669 1.39164 7.94927 1.44662L8.01177 2.02149C8.08106 2.65447 8.44902 3.21746 9.00005 3.53582C9.55144 3.85439 10.2227 3.89101 10.8054 3.63478L11.334 3.40235C11.74 3.88981 12.0614 4.4404 12.2859 5.04363L11.8171 5.38738C11.3039 5.76385 11 6.36325 11 7.00001C11 7.63677 11.3039 8.23617 11.8171 8.61264L12.2859 8.95639C12.0614 9.55962 11.74 10.1102 11.334 10.5977L10.8054 10.3652C10.2227 10.109 9.55144 10.1456 9.00005 10.4642C8.44902 10.7826 8.08106 11.3456 8.01177 11.9785L7.94927 12.5534C7.63672 12.6082 7.32466 12.6667 7.00005 12.6667C6.67528 12.6667 6.36341 12.6084 6.05083 12.5534L5.98833 11.9785C5.91904 11.3456 5.55108 10.7826 5.00005 10.4642C4.44866 10.1456 3.77735 10.109 3.19471 10.3652L2.66606 10.5977C2.26004 10.1103 1.9387 9.55966 1.71424 8.95639L2.18299 8.61264C2.6962 8.23617 3.00005 7.63677 3.00005 7.00001C3.00005 6.36325 2.69596 5.76346 2.18299 5.38673L1.71424 5.04298C1.93883 4.43952 2.26053 3.88929 2.66672 3.4017L3.19471 3.63412C3.77735 3.89036 4.44866 3.85439 5.00005 3.53582C5.55108 3.21746 5.91904 2.65447 5.98833 2.02149L6.05083 1.44662C6.36338 1.39179 6.67544 1.33334 7.00005 1.33334ZM7.00005 4.33334C5.53321 4.33334 4.33338 5.53317 4.33338 7.00001C4.33338 8.46685 5.53321 9.66668 7.00005 9.66668C8.46689 9.66668 9.66672 8.46685 9.66672 7.00001C9.66672 5.53317 8.46689 4.33334 7.00005 4.33334ZM7.00005 5.33334C7.92645 5.33334 8.66672 6.07361 8.66672 7.00001C8.66672 7.92641 7.92645 8.66668 7.00005 8.66668C6.07365 8.66668 5.33338 7.92641 5.33338 7.00001C5.33338 6.07361 6.07365 5.33334 7.00005 5.33334Z"
				fill="currentColor"
			/>
		</svg>

		<svg id="user" width="175" height="191" viewBox="0 0 175 191" fill="none" xmlns="http://www.w3.org/2000/svg">
			<g clip-path="url(#clip0)">
				<path
					d="M93.6876 20.0594C99.796 36.3923 119.787 33.9344 133.352 30.4458C136.605 29.5737 139.937 28.6222 142.872 26.9572C145.807 25.2922 148.266 22.5965 149.218 19.3458C150.249 15.6986 149.059 11.655 146.997 8.4836C145.093 5.55002 142.316 2.45786 139.381 0.554999C138.112 3.80573 133.59 4.04358 130.496 4.04358C126.133 4.04358 122.167 2.37858 118.121 1.18929C113.996 -3.39746e-06 109.553 -0.237861 105.428 0.872143C97.0988 2.85429 90.4351 11.3379 93.6876 20.0594Z"
					fill="#23286B"
				/>
				<path
					d="M106.142 129.395C105.904 129.395 105.825 129.395 105.666 129.474L106.142 129.395Z"
					fill="#23286B"
				/>
				<path
					d="M106.142 129.395C105.904 129.395 105.825 129.395 105.666 129.474L106.142 129.395Z"
					fill="#23286B"
				/>
				<path
					d="M88.5312 49.8708V34.5686C88.5312 21.5657 100.669 10.9414 115.503 10.9414C122.881 10.9414 129.624 13.5578 134.542 17.8393C139.461 22.1207 142.475 27.9879 142.475 34.4894V49.7916"
					stroke="#23286B"
					stroke-width="2"
					stroke-miterlimit="10"
				/>
				<path
					d="M142.475 66.4417V84.1224C142.475 97.1253 130.338 107.75 115.503 107.75C100.669 107.75 88.5312 97.1253 88.5312 84.1224V66.4417"
					stroke="#23286B"
					stroke-width="2"
					stroke-miterlimit="10"
				/>
				<path
					d="M99.4787 71.9125C107.058 71.9125 113.203 65.7714 113.203 58.196C113.203 50.6206 107.058 44.4795 99.4787 44.4795C91.8992 44.4795 85.7548 50.6206 85.7548 58.196C85.7548 65.7714 91.8992 71.9125 99.4787 71.9125Z"
					stroke="#23286B"
					stroke-width="2"
					stroke-miterlimit="10"
				/>
				<path
					d="M131.448 71.9125C139.028 71.9125 145.172 65.7714 145.172 58.196C145.172 50.6206 139.028 44.4795 131.448 44.4795C123.869 44.4795 117.724 50.6206 117.724 58.196C117.724 65.7714 123.869 71.9125 131.448 71.9125Z"
					stroke="#23286B"
					stroke-width="2"
					stroke-miterlimit="10"
				/>
				<path d="M113.123 57.7996H117.883" stroke="#23286B" stroke-width="4" stroke-miterlimit="10" />
				<path d="M126.53 105.609H126.609V130.425" stroke="#23286B" stroke-width="2" stroke-miterlimit="10" />
				<path d="M106.777 130.108V106.243" stroke="#23286B" stroke-width="2" stroke-miterlimit="10" />
				<path
					d="M99.4787 61.3673C101.231 61.3673 102.652 59.9474 102.652 58.1959C102.652 56.4443 101.231 55.0244 99.4787 55.0244C97.7262 55.0244 96.3055 56.4443 96.3055 58.1959C96.3055 59.9474 97.7262 61.3673 99.4787 61.3673Z"
					fill="#23286B"
				/>
				<path
					d="M131.448 61.3673C133.201 61.3673 134.621 59.9474 134.621 58.1959C134.621 56.4443 133.201 55.0244 131.448 55.0244C129.696 55.0244 128.275 56.4443 128.275 58.1959C128.275 59.9474 129.696 61.3673 131.448 61.3673Z"
					fill="#23286B"
				/>
				<path
					d="M86.7067 63.3496H85.1201C83.3749 63.3496 81.7883 64.0632 80.5984 65.1732C79.4878 66.3625 78.7738 67.9482 78.7738 69.6925C78.7738 73.1811 81.6297 76.0354 85.1201 76.0354H88.2933"
					stroke="#23286B"
					stroke-width="2"
					stroke-miterlimit="10"
				/>
				<path
					d="M144.22 63.3496H145.807C149.297 63.3496 152.153 66.2039 152.153 69.6925C152.153 71.4368 151.439 73.0225 150.249 74.2118C149.139 75.3218 147.552 76.0354 145.807 76.0354H142.634"
					stroke="#23286B"
					stroke-width="2"
					stroke-miterlimit="10"
				/>
				<path
					d="M88.3726 67.7896V71.5953H85.8341C84.8028 71.5953 83.9302 70.7231 83.9302 69.6924C83.9302 69.1374 84.1682 68.6617 84.4855 68.3446C84.8028 68.0274 85.2788 67.7896 85.8341 67.7896H88.3726Z"
					fill="#23286B"
				/>
				<path
					d="M142.634 71.5953V67.7896H145.172C146.203 67.7896 147.076 68.6617 147.076 69.6924C147.076 70.2474 146.838 70.7231 146.521 71.0403C146.203 71.3574 145.728 71.5953 145.172 71.5953H142.634Z"
					fill="#23286B"
				/>
				<path
					d="M115.503 71.2781C115.503 71.2781 111.537 77.621 117.883 76.0352"
					stroke="#23286B"
					stroke-width="2"
					stroke-miterlimit="10"
					stroke-linecap="round"
				/>
				<path
					d="M108.364 89.5933C108.364 89.5933 114.71 97.4426 123.436 89.5933"
					stroke="#23286B"
					stroke-width="2"
					stroke-miterlimit="10"
					stroke-linecap="round"
				/>
				<path
					d="M93.291 41.9423C93.291 41.9423 97.6541 37.5816 105.19 41.1495"
					stroke="#23286B"
					stroke-width="3"
					stroke-miterlimit="10"
					stroke-linecap="round"
				/>
				<path
					d="M137.715 41.9423C137.715 41.9423 133.352 37.5816 125.816 41.1495"
					stroke="#23286B"
					stroke-width="3"
					stroke-miterlimit="10"
					stroke-linecap="round"
				/>
				<path
					d="M88.3726 32.9037C88.3726 32.9037 77.4251 24.4201 82.1849 14.1129C86.9446 3.80569 102.017 9.35571 102.017 9.35571C102.017 9.35571 108.046 35.0444 88.3726 32.9037Z"
					fill="#23286B"
				/>
				<path
					d="M33.9528 96.2538C33.0009 93.1617 31.6523 91.6552 30.9383 87.1359C29.4311 78.0973 29.9864 69.4551 26.2579 69.7723C24.7506 69.9308 24.2747 71.5166 24.354 72.3887L25.5439 86.6602C25.068 88.3252 24.1953 87.6909 24.1953 87.6909C24.1953 87.6909 21.1015 75.0052 20.7049 72.7059C20.3082 70.4858 19.1976 69.2173 17.6904 69.3758C15.0725 69.6137 16.1038 72.7851 16.3418 73.9744L19.1183 89.3559C19.3563 90.8624 17.7697 90.3866 17.7697 90.3866L11.582 75.0052C10.8681 73.3401 9.51946 73.7366 9.51946 73.7366C7.06026 74.2916 8.01221 76.5116 8.01221 76.5116L13.3273 92.8445C13.3273 92.9238 13.3273 93.0031 13.3273 93.0824C13.4066 93.9545 12.296 94.4302 11.82 93.6374C10.1541 91.1002 6.9016 87.0566 4.20441 85.4709C2.85581 84.6781 1.90387 84.8366 1.34856 85.2331C0.793258 85.6295 0.713929 86.3431 1.11057 86.8981L11.0267 101.249C13.3273 116.472 22.6088 118.295 22.6088 118.295L28.1618 140.02L36.3327 174.271L37.364 178.632C38.3159 182.834 42.1237 185.847 46.4075 185.847H50.7706C53.8644 185.847 56.0063 182.834 55.0544 179.98L35.3014 119.881L34.4288 114.648C36.3327 112.507 37.602 107.988 38.2366 104.737C38.6332 102.993 38.7919 101.17 38.6332 99.4252C38.3159 95.0645 41.2511 87.2152 41.2511 87.2152C41.0131 85.7088 38.1573 86.9773 38.1573 86.9773C34.9841 88.0873 34.1908 93.1617 33.9528 95.9367C33.8735 97.126 33.3182 98.1567 32.5249 98.9495C27.7652 103.627 27.3685 108.86 27.3685 108.86"
					stroke="#23286B"
					stroke-width="2"
					stroke-miterlimit="10"
				/>
				<path
					d="M20.6255 72.7845C20.2289 70.5645 19.5149 68.8995 17.611 69.4545C15.0725 70.1681 16.0244 72.8638 16.2624 74.0531"
					stroke="#23286B"
					stroke-width="2"
					stroke-miterlimit="10"
				/>
				<path
					d="M175 190.207V191H157.706L154.057 170.782V191H79.1704V179.504C79.1704 176.729 79.1704 173.954 79.2498 171.179C77.5839 172.526 75.7593 173.636 73.6174 174.826L57.0376 185.926C56.9583 186.005 56.879 186.005 56.7996 186.084C56.0857 186.481 55.2924 186.719 54.4198 186.719L50.9719 186.849C50.9719 186.849 54.6578 185.45 55.5304 181.961L49.5807 162.14C58.0689 155.083 71.7928 134.707 98.1301 130.505C99.2407 130.267 100.431 130.029 101.7 129.87C102.89 129.712 104.08 129.553 105.428 129.474L106.301 129.395V129.553L105.825 129.633C105.984 129.633 106.063 129.633 106.222 129.553H106.301C106.46 129.553 106.618 129.553 106.777 129.474H106.856L107.65 129.395V132.408C107.65 132.804 107.808 133.28 108.205 133.676C109.395 135.024 112.092 136.055 115.345 136.293C115.9 136.372 116.455 136.372 117.01 136.372C117.09 136.372 117.169 136.372 117.169 136.372H117.248C120.422 136.293 123.357 135.421 124.864 134.152C125.34 133.756 125.816 133.201 125.816 132.408V129.633L126.609 129.791H126.768C127.006 129.791 127.165 129.87 127.403 129.87V129.633L128.434 129.791C157.548 133.359 175 155.956 175 190.207Z"
					fill="#23286B"
				/>
				<path
					d="M56.9583 185.846L56.7203 186.005C56.7997 186.005 56.879 185.926 56.9583 185.846Z"
					fill="#23286B"
				/>
			</g>
			<defs>
				<clipPath id="clip0">
					<rect width="175" height="191" fill="white" />
				</clipPath>
			</defs>
		</svg>
	</defs>
</svg>
